<svg xmlns="http://www.w3.org/2000/svg" viewBox="0 0 750 500"><g id="freepik--Floor--inject-71"><path d="M33.54,453.75a.48.48,0,0,1-.45-.29.49.49,0,0,1,.24-.66L263.67,346.61a.49.49,0,0,1,.66.24.5.5,0,0,1-.24.67L33.75,453.71A.52.52,0,0,1,33.54,453.75Z" style="fill:#263238"></path><path d="M703,453.75a.52.52,0,0,1-.21,0L472.48,347.52a.5.5,0,1,1,.42-.91L703.23,452.8a.5.5,0,0,1-.21.95Z" style="fill:#263238"></path></g><g id="freepik--Clouds--inject-71"><path d="M305.85,53.9h-108l.1-.59c.57-3.12,2.53-10.57,8.35-12.39s11.08,2.34,13,4.11c.37-3.23,2.17-12.83,10.51-16.1a14.6,14.6,0,0,1,15.86,3c1.17-2.83,6.15-12.44,19.9-12.44a22.07,22.07,0,0,1,16.3,6.8A27.41,27.41,0,0,1,289.26,45c1.95-.45,7.71-1.43,11.78,1.53a11.8,11.8,0,0,1,4.65,6.71Zm-106.8-1H304.54a10.85,10.85,0,0,0-4.08-5.52c-4.46-3.24-11.5-1.23-11.57-1.21l-.67.19,0-.69A26.36,26.36,0,0,0,281.18,27a21.11,21.11,0,0,0-15.58-6.5c-15.28,0-19.08,12-19.24,12.5l-.27.9-.59-.72a13.36,13.36,0,0,0-15.29-3.28c-9.43,3.69-10,16.14-10,16.26l0,1.2-.82-.87c-.07-.07-6.3-6.6-12.78-4.58C201.55,43.46,199.64,50.11,199.05,52.9Z" style="opacity:0.30000000000000004"></path><path d="M544.91,140.61H460.45l.11-.59c.45-2.45,2-8.31,6.59-9.74,4.37-1.37,8.44,1.61,10.09,3.07.32-2.73,1.77-9.88,8.25-12.42a11.47,11.47,0,0,1,12.36,2.24c1-2.4,5-9.62,15.55-9.62a17.29,17.29,0,0,1,12.79,5.34A21.48,21.48,0,0,1,532,133.45c1.64-.36,6-1,9.13,1.24a9.29,9.29,0,0,1,3.67,5.3Zm-83.25-1H543.6a8.37,8.37,0,0,0-3.09-4.11c-3.44-2.5-8.87-.94-8.92-.93l-.67.2,0-.69a20.39,20.39,0,0,0-5.47-14.5,16.35,16.35,0,0,0-12.07-5c-11.82,0-14.77,9.27-14.89,9.67l-.27.89-.59-.72a10.33,10.33,0,0,0-11.8-2.53c-7.28,2.85-7.69,12.49-7.7,12.59l0,1.2-.82-.88c-.05-.05-4.86-5.1-9.85-3.54C463.64,132.42,462.15,137.38,461.66,139.61Z" style="opacity:0.30000000000000004"></path><path d="M121.4,86.05H36.94l.11-.59c.44-2.45,2-8.31,6.58-9.75,4.37-1.37,8.44,1.61,10.1,3.07.32-2.73,1.77-9.88,8.24-12.41A11.48,11.48,0,0,1,74.33,68.6c1-2.39,5-9.62,15.56-9.62a17.32,17.32,0,0,1,12.78,5.34,21.5,21.5,0,0,1,5.77,14.57c1.65-.36,6-1,9.14,1.24a9.33,9.33,0,0,1,3.66,5.29Zm-83.25-1h81.94a8.47,8.47,0,0,0-3.1-4.11c-3.44-2.5-8.87-.94-8.92-.93l-.67.2,0-.7A20.44,20.44,0,0,0,102,65a16.32,16.32,0,0,0-12.06-5C78.06,60,75.11,69.26,75,69.65l-.27.89-.6-.71A10.32,10.32,0,0,0,62.34,67.3c-7.29,2.85-7.7,12.49-7.7,12.58l0,1.2-.82-.87c-.05,0-4.87-5.1-9.84-3.54C40.12,77.86,38.63,82.81,38.15,85.05Z" style="opacity:0.30000000000000004"></path><path d="M720.68,102.48H558.36l.11-.59c.67-3.63,3.52-15.71,12.42-18.49s17.24,4.08,19.79,6.48c.41-4.24,2.81-19.51,15.75-24.58A21.78,21.78,0,0,1,630.35,70c1.45-3.69,8.71-19,29.94-19A33,33,0,0,1,684.7,61.23a41.14,41.14,0,0,1,11,28.46c2.53-.62,11.58-2.4,17.89,2.19a17.61,17.61,0,0,1,6.91,10Zm-161.11-1H719.39A16.67,16.67,0,0,0,713,92.69c-6.83-5-17.57-1.9-17.68-1.87l-.66.2,0-.7A40,40,0,0,0,684,61.92,32.09,32.09,0,0,0,660.29,52C637,52,631.08,70.9,631,71.09l-.27.89-.59-.72a20.78,20.78,0,0,0-23.36-5C592.41,71.86,591.6,90.82,591.59,91l0,1.2-.82-.88c-.1-.1-9.61-10.07-19.54-7C563.25,86.84,560.38,97.43,559.57,101.48Z" style="opacity:0.30000000000000004"></path></g><g id="freepik--high-school-building--inject-71"><rect x="9.55" y="202.29" width="730.9" height="144.78" style="fill:#92E3A9"></rect><path d="M740.45,347.56H9.55a.5.5,0,0,1-.5-.5V202.29a.5.5,0,0,1,.5-.5h730.9a.5.5,0,0,1,.5.5V347.06A.5.5,0,0,1,740.45,347.56Zm-730.4-1H740V202.79H10.05Z" style="fill:#263238"></path><rect x="9.55" y="290.85" width="730.9" height="56.22" style="fill:#fff"></rect><path d="M740.45,347.56H9.55a.5.5,0,0,1-.5-.5V290.85a.5.5,0,0,1,.5-.5h730.9a.5.5,0,0,1,.5.5v56.21A.5.5,0,0,1,740.45,347.56Zm-730.4-1H740V291.35H10.05Z" style="fill:#263238"></path><rect x="9.55" y="202.29" width="730.9" height="12.04" style="fill:#263238"></rect><path d="M740.45,214.82H9.55a.5.5,0,0,1-.5-.5v-12a.5.5,0,0,1,.5-.5h730.9a.5.5,0,0,1,.5.5v12A.5.5,0,0,1,740.45,214.82Zm-730.4-1H740v-11H10.05Z" style="fill:#263238"></path><rect x="9.55" y="190.16" width="730.9" height="17.56" style="fill:#fff"></rect><path d="M740.45,208.23H9.55a.5.5,0,0,1-.5-.5V190.16a.5.5,0,0,1,.5-.5h730.9a.5.5,0,0,1,.5.5v17.57A.5.5,0,0,1,740.45,208.23Zm-730.4-1H740V190.66H10.05Z" style="fill:#263238"></path><rect x="284.83" y="65.13" width="180.33" height="144.78" style="fill:#263238"></rect><path d="M465.17,210.41H284.83a.51.51,0,0,1-.5-.5V65.13a.51.51,0,0,1,.5-.5H465.17a.51.51,0,0,1,.5.5V209.91A.51.51,0,0,1,465.17,210.41Zm-179.84-1H464.67V65.63H285.33Z" style="fill:#263238"></path><path d="M460.87,152.78H427.4v-52h33.47a1.16,1.16,0,0,0,0-2.31H427.4V64.24a1.15,1.15,0,1,0-2.3,0V98.49H392V64.24a1.15,1.15,0,1,0-2.3,0V98.49h-33.1V64.24a1.16,1.16,0,1,0-2.31,0V98.49h-33.1V64.24a1.16,1.16,0,1,0-2.31,0V98.49H283.05a1.16,1.16,0,1,0,0,2.31h35.82v52H283.05a1.16,1.16,0,1,0,0,2.31h35.82v42.12a1.16,1.16,0,1,0,2.31,0V155.09h33.1v42.12a1.16,1.16,0,1,0,2.31,0V155.09h33.1v42.12a1.15,1.15,0,1,0,2.3,0V155.09H425.1v42.12a1.15,1.15,0,1,0,2.3,0V155.09h33.47a1.16,1.16,0,0,0,0-2.31Zm-139.69,0v-52h33.1v52Zm35.41,0v-52h33.1v52Zm35.4,0v-52H425.1v52Z" style="fill:#fff"></path><path d="M426.25,198.87a1.66,1.66,0,0,1-1.65-1.66V155.59H392.49v41.62a1.65,1.65,0,1,1-3.3,0V155.59h-32.1v41.62a1.66,1.66,0,1,1-3.31,0V155.59h-32.1v41.62a1.66,1.66,0,1,1-3.31,0V155.59H283.05a1.66,1.66,0,1,1,0-3.31h35.32v-51H283.05a1.66,1.66,0,1,1,0-3.31h35.32V64.24a1.66,1.66,0,1,1,3.31,0V98h32.1V64.24a1.66,1.66,0,1,1,3.31,0V98h32.1V64.24a1.65,1.65,0,1,1,3.3,0V98H424.6V64.24a1.65,1.65,0,1,1,3.3,0V98h33a1.66,1.66,0,0,1,0,3.31h-33v51h33a1.66,1.66,0,0,1,0,3.31h-33v41.62A1.66,1.66,0,0,1,426.25,198.87ZM392,154.59H425.1a.5.5,0,0,1,.5.5v42.12a.65.65,0,1,0,1.3,0V155.09a.5.5,0,0,1,.5-.5h33.47a.65.65,0,0,0,.65-.65.66.66,0,0,0-.65-.66H427.4a.5.5,0,0,1-.5-.5v-52a.5.5,0,0,1,.5-.5h33.47a.66.66,0,0,0,0-1.31H427.4a.5.5,0,0,1-.5-.5V64.24a.65.65,0,1,0-1.3,0V98.49a.5.5,0,0,1-.5.5H392a.5.5,0,0,1-.5-.5V64.24a.65.65,0,1,0-1.3,0V98.49a.5.5,0,0,1-.5.5h-33.1a.5.5,0,0,1-.5-.5V64.24a.67.67,0,0,0-.66-.66.66.66,0,0,0-.65.66V98.49a.5.5,0,0,1-.5.5h-33.1a.5.5,0,0,1-.5-.5V64.24a.66.66,0,0,0-.65-.66.67.67,0,0,0-.66.66V98.49a.5.5,0,0,1-.5.5H283.05a.66.66,0,1,0,0,1.31h35.82a.5.5,0,0,1,.5.5v52a.5.5,0,0,1-.5.5H283.05a.67.67,0,0,0-.66.66.66.66,0,0,0,.66.65h35.82a.5.5,0,0,1,.5.5v42.12a.67.67,0,0,0,.66.66.66.66,0,0,0,.65-.66V155.09a.5.5,0,0,1,.5-.5h33.1a.5.5,0,0,1,.5.5v42.12a.66.66,0,0,0,.65.66.67.67,0,0,0,.66-.66V155.09a.5.5,0,0,1,.5-.5h33.1a.5.5,0,0,1,.5.5v42.12a.65.65,0,1,0,1.3,0V155.09A.5.5,0,0,1,392,154.59Zm33.11-1.31H392a.5.5,0,0,1-.5-.5v-52a.5.5,0,0,1,.5-.5H425.1a.5.5,0,0,1,.5.5v52A.5.5,0,0,1,425.1,153.28Zm-32.61-1H424.6v-51H392.49Zm-2.8,1h-33.1a.5.5,0,0,1-.5-.5v-52a.5.5,0,0,1,.5-.5h33.1a.5.5,0,0,1,.5.5v52A.5.5,0,0,1,389.69,153.28Zm-32.6-1h32.1v-51h-32.1Zm-2.81,1h-33.1a.5.5,0,0,1-.5-.5v-52a.5.5,0,0,1,.5-.5h33.1a.5.5,0,0,1,.5.5v52A.5.5,0,0,1,354.28,153.28Zm-32.6-1h32.1v-51h-32.1Z" style="fill:#263238"></path><rect x="272.13" y="72.75" width="19.68" height="137.16" style="fill:#92E3A9"></rect><path d="M291.82,210.41H272.13a.51.51,0,0,1-.5-.5V72.75a.51.51,0,0,1,.5-.5h19.69a.51.51,0,0,1,.5.5V209.91A.51.51,0,0,1,291.82,210.41Zm-19.19-1h18.69V73.25H272.63Z" style="fill:#263238"></path><rect x="263.88" y="75.93" width="36.19" height="10.16" style="fill:#92E3A9"></rect><path d="M300.07,86.59H263.88a.5.5,0,0,1-.5-.5V75.93a.5.5,0,0,1,.5-.5h36.19a.5.5,0,0,1,.5.5V86.09A.5.5,0,0,1,300.07,86.59Zm-35.69-1h35.19V76.43H264.38Z" style="fill:#263238"></path><rect x="451.2" y="72.75" width="19.68" height="137.16" style="fill:#92E3A9"></rect><path d="M470.88,210.41H451.2a.5.5,0,0,1-.5-.5V72.75a.5.5,0,0,1,.5-.5h19.68a.5.5,0,0,1,.5.5V209.91A.5.5,0,0,1,470.88,210.41Zm-19.18-1h18.68V73.25H451.7Z" style="fill:#263238"></path><rect x="442.94" y="75.93" width="36.19" height="10.16" style="fill:#92E3A9"></rect><path d="M479.14,86.59h-36.2a.51.51,0,0,1-.5-.5V75.93a.5.5,0,0,1,.5-.5h36.2a.5.5,0,0,1,.5.5V86.09A.51.51,0,0,1,479.14,86.59Zm-35.7-1h35.2V76.43h-35.2Z" style="fill:#263238"></path><path d="M482.31,87.36a429.52,429.52,0,0,0-226.69,0c-1.78-6.54-3.57-15.13-5.36-21.66a449.83,449.83,0,0,1,237.41,0C485.89,72.23,484.1,80.82,482.31,87.36Z" style="fill:#fff"></path><path d="M255.62,87.86a.5.5,0,0,1-.48-.37c-.9-3.28-1.81-7.13-2.69-10.85s-1.78-7.56-2.67-10.81a.51.51,0,0,1,.35-.62,450.84,450.84,0,0,1,237.68,0,.54.54,0,0,1,.3.24.55.55,0,0,1,.05.38c-.9,3.26-1.81,7.1-2.68,10.82s-1.79,7.57-2.69,10.84a.47.47,0,0,1-.23.3.5.5,0,0,1-.38,0,429.33,429.33,0,0,0-226.42,0Zm-4.74-21.81c.85,3.16,1.71,6.82,2.55,10.36s1.7,7.18,2.55,10.33a430.36,430.36,0,0,1,226,0c.85-3.15,1.71-6.79,2.54-10.32s1.71-7.2,2.56-10.37A449.55,449.55,0,0,0,250.88,66.05Z" style="fill:#263238"></path><rect x="284.83" y="202.29" width="180.33" height="144.78" style="fill:#c9c9c9"></rect><path d="M465.17,347.56H284.83a.5.5,0,0,1-.5-.5V202.29a.5.5,0,0,1,.5-.5H465.17a.5.5,0,0,1,.5.5V347.06A.5.5,0,0,1,465.17,347.56Zm-179.84-1H464.67V202.79H285.33Z" style="fill:#263238"></path><rect x="322.85" y="255.44" width="104.3" height="91.63" style="fill:#e0e0e0"></rect><path d="M427.15,347.56H322.85a.5.5,0,0,1-.5-.5V255.44a.5.5,0,0,1,.5-.5h104.3a.5.5,0,0,1,.5.5v91.62A.5.5,0,0,1,427.15,347.56Zm-103.8-1h103.3V255.94H323.35Z" style="fill:#263238"></path><rect x="322.85" y="204" width="104.3" height="48.31" style="fill:#e0e0e0"></rect><path d="M427.15,252.82H322.85a.51.51,0,0,1-.5-.5V204a.51.51,0,0,1,.5-.5h104.3a.51.51,0,0,1,.5.5v48.32A.51.51,0,0,1,427.15,252.82Zm-103.8-1h103.3V204.5H323.35Z" style="fill:#263238"></path><rect x="272.13" y="209.91" width="19.68" height="137.16" style="fill:#92E3A9"></rect><path d="M291.82,347.56H272.13a.5.5,0,0,1-.5-.5V209.91a.5.5,0,0,1,.5-.5h19.69a.5.5,0,0,1,.5.5V347.06A.5.5,0,0,1,291.82,347.56Zm-19.19-1h18.69V210.41H272.63Z" style="fill:#263238"></path><rect x="263.88" y="213.08" width="36.19" height="10.16" style="fill:#92E3A9"></rect><path d="M300.07,223.74H263.88a.5.5,0,0,1-.5-.5V213.08a.5.5,0,0,1,.5-.5h36.19a.5.5,0,0,1,.5.5v10.16A.5.5,0,0,1,300.07,223.74Zm-35.69-1h35.19v-9.16H264.38Z" style="fill:#263238"></path><rect x="451.2" y="209.91" width="19.68" height="137.16" style="fill:#92E3A9"></rect><path d="M470.88,347.56H451.2a.5.5,0,0,1-.5-.5V209.91a.5.5,0,0,1,.5-.5h19.68a.5.5,0,0,1,.5.5V347.06A.5.5,0,0,1,470.88,347.56Zm-19.18-1h18.68V210.41H451.7Z" style="fill:#263238"></path><rect x="442.94" y="213.08" width="36.19" height="10.16" style="fill:#92E3A9"></rect><path d="M479.14,223.74h-36.2a.5.5,0,0,1-.5-.5V213.08a.51.51,0,0,1,.5-.5h36.2a.51.51,0,0,1,.5.5v10.16A.5.5,0,0,1,479.14,223.74Zm-35.7-1h35.2v-9.16h-35.2Z" style="fill:#263238"></path><path d="M482.31,224.51a429.52,429.52,0,0,0-226.69,0c-1.78-6.53-3.57-15.13-5.36-21.66a449.83,449.83,0,0,1,237.41,0C485.89,209.38,484.1,218,482.31,224.51Z" style="fill:#fff"></path><path d="M255.62,225a.49.49,0,0,1-.48-.37c-.9-3.27-1.81-7.12-2.69-10.85s-1.78-7.55-2.67-10.81a.5.5,0,0,1,.35-.61,450.63,450.63,0,0,1,237.68,0,.52.52,0,0,1,.3.23.57.57,0,0,1,.05.38c-.9,3.27-1.81,7.11-2.68,10.83s-1.79,7.56-2.69,10.83a.52.52,0,0,1-.23.31.5.5,0,0,1-.38,0,429.33,429.33,0,0,0-226.42,0A.34.34,0,0,1,255.62,225Zm-4.74-21.81c.85,3.17,1.71,6.82,2.55,10.36s1.7,7.19,2.55,10.34a430.36,430.36,0,0,1,226,0c.85-3.15,1.71-6.79,2.54-10.32s1.71-7.21,2.56-10.38A449.75,449.75,0,0,0,250.88,203.2Z" style="fill:#263238"></path><path d="M482.31,85.3a429.52,429.52,0,0,0-226.69,0q-2.67-9.81-5.36-19.6a449.83,449.83,0,0,1,237.41,0Q485,75.5,482.31,85.3Z" style="fill:#fff"></path><path d="M255.62,85.79a.49.49,0,0,1-.48-.36l-5.36-19.6a.51.51,0,0,1,.35-.62,450.84,450.84,0,0,1,237.68,0,.54.54,0,0,1,.3.24.55.55,0,0,1,.05.38l-5.37,19.6a.52.52,0,0,1-.23.3.55.55,0,0,1-.38,0,429.33,429.33,0,0,0-226.42,0ZM369,69.58a430,430,0,0,1,113,15.1l5.1-18.63a449.55,449.55,0,0,0-236.18,0L256,84.68A430,430,0,0,1,369,69.58Z" style="fill:#263238"></path><path d="M482.31,222.45a429.52,429.52,0,0,0-226.69,0q-2.67-9.8-5.36-19.6a449.83,449.83,0,0,1,237.41,0Q485,212.65,482.31,222.45Z" style="fill:#fff"></path><path d="M255.62,223a.49.49,0,0,1-.48-.37L249.78,203a.5.5,0,0,1,.35-.61,450.63,450.63,0,0,1,237.68,0,.52.52,0,0,1,.3.23.57.57,0,0,1,.05.38l-5.37,19.6a.52.52,0,0,1-.23.31.5.5,0,0,1-.38,0,429.33,429.33,0,0,0-226.42,0A.34.34,0,0,1,255.62,223ZM369,206.74a430,430,0,0,1,113,15.1l5.1-18.64a449.75,449.75,0,0,0-236.18,0L256,221.84A430,430,0,0,1,369,206.74Z" style="fill:#263238"></path><rect x="330.55" y="265.15" width="21.59" height="76.83" style="fill:#263238"></rect><path d="M352.14,342.48H330.55a.5.5,0,0,1-.5-.5V265.15a.51.51,0,0,1,.5-.5h21.59a.5.5,0,0,1,.5.5V342A.5.5,0,0,1,352.14,342.48Zm-21.09-1h20.59V265.65H331.05Z" style="fill:#263238"></path><rect x="363.57" y="265.15" width="21.59" height="76.83" style="fill:#263238"></rect><path d="M385.16,342.48H363.57a.5.5,0,0,1-.5-.5V265.15a.5.5,0,0,1,.5-.5h21.59a.5.5,0,0,1,.5.5V342A.5.5,0,0,1,385.16,342.48Zm-21.09-1h20.59V265.65H364.07Z" style="fill:#263238"></path><rect x="396.59" y="265.15" width="21.59" height="76.83" style="fill:#263238"></rect><path d="M418.18,342.48H396.59a.5.5,0,0,1-.5-.5V265.15a.5.5,0,0,1,.5-.5h21.59a.5.5,0,0,1,.5.5V342A.5.5,0,0,1,418.18,342.48Zm-21.09-1h20.59V265.65H397.09Z" style="fill:#263238"></path><rect x="324.2" y="305.79" width="101.6" height="3.81" style="fill:#e0e0e0"></rect><path d="M425.8,310.1H324.2a.5.5,0,0,1-.5-.5v-3.81a.5.5,0,0,1,.5-.5H425.8a.5.5,0,0,1,.5.5v3.81A.5.5,0,0,1,425.8,310.1Zm-101.1-1H425.3v-2.81H324.7Z" style="fill:#263238"></path><rect x="263.88" y="328.61" width="31.87" height="18.45" style="fill:#fff"></rect><path d="M295.75,347.56H263.88a.5.5,0,0,1-.5-.5V328.61a.5.5,0,0,1,.5-.5h31.87a.5.5,0,0,1,.5.5v18.45A.5.5,0,0,1,295.75,347.56Zm-31.37-1h30.87V329.11H264.38Z" style="fill:#263238"></path><rect x="447.26" y="328.61" width="31.87" height="18.45" style="fill:#fff"></rect><path d="M479.14,347.56H447.26a.5.5,0,0,1-.5-.5V328.61a.51.51,0,0,1,.5-.5h31.88a.51.51,0,0,1,.5.5v18.45A.5.5,0,0,1,479.14,347.56Zm-31.38-1h30.88V329.11H447.76Z" style="fill:#263238"></path><rect x="144.36" y="235.46" width="75.36" height="71.03" style="fill:#263238"></rect><path d="M219.72,307H144.36a.5.5,0,0,1-.5-.5v-71a.5.5,0,0,1,.5-.5h75.36a.51.51,0,0,1,.5.5v71A.5.5,0,0,1,219.72,307Zm-74.86-1h74.36V236H144.86Z" style="fill:#263238"></path><rect x="144.36" y="287.02" width="75.36" height="3.51" style="fill:#fff"></rect><path d="M219.72,291H144.36a.5.5,0,0,1-.5-.5V287a.5.5,0,0,1,.5-.5h75.36a.51.51,0,0,1,.5.5v3.51A.5.5,0,0,1,219.72,291Zm-74.86-1h74.36v-2.51H144.86Z" style="fill:#263238"></path><rect x="178.37" y="235.46" width="7.34" height="71.03" style="fill:#fff"></rect><path d="M185.71,307h-7.34a.5.5,0,0,1-.5-.5v-71a.5.5,0,0,1,.5-.5h7.34a.51.51,0,0,1,.5.5v71A.5.5,0,0,1,185.71,307Zm-6.84-1h6.34V236h-6.34Z" style="fill:#263238"></path><rect x="41.28" y="235.46" width="75.36" height="71.03" style="fill:#263238"></rect><path d="M116.64,307H41.28a.5.5,0,0,1-.5-.5v-71a.5.5,0,0,1,.5-.5h75.36a.5.5,0,0,1,.5.5v71A.5.5,0,0,1,116.64,307Zm-74.86-1h74.36V236H41.78Z" style="fill:#263238"></path><rect x="41.28" y="287.02" width="75.36" height="3.51" style="fill:#fff"></rect><path d="M116.64,291H41.28a.5.5,0,0,1-.5-.5V287a.5.5,0,0,1,.5-.5h75.36a.5.5,0,0,1,.5.5v3.51A.5.5,0,0,1,116.64,291Zm-74.86-1h74.36v-2.51H41.78Z" style="fill:#263238"></path><rect x="75.29" y="235.46" width="7.34" height="71.03" style="fill:#fff"></rect><path d="M82.63,307H75.29a.5.5,0,0,1-.5-.5v-71a.5.5,0,0,1,.5-.5h7.34a.51.51,0,0,1,.5.5v71A.5.5,0,0,1,82.63,307Zm-6.84-1h6.34V236H75.79Z" style="fill:#263238"></path><rect x="628.57" y="235.46" width="75.36" height="71.03" style="fill:#263238"></rect><path d="M703.93,307H628.57a.5.5,0,0,1-.5-.5v-71a.51.51,0,0,1,.5-.5h75.36a.5.5,0,0,1,.5.5v71A.5.5,0,0,1,703.93,307Zm-74.86-1h74.36V236H629.07Z" style="fill:#263238"></path><rect x="628.57" y="287.02" width="75.36" height="3.51" style="fill:#fff"></rect><path d="M703.93,291H628.57a.5.5,0,0,1-.5-.5V287a.51.51,0,0,1,.5-.5h75.36a.5.5,0,0,1,.5.5v3.51A.5.5,0,0,1,703.93,291Zm-74.86-1h74.36v-2.51H629.07Z" style="fill:#263238"></path><rect x="662.59" y="235.46" width="7.34" height="71.03" style="fill:#fff"></rect><path d="M669.92,307h-7.33a.5.5,0,0,1-.5-.5v-71a.5.5,0,0,1,.5-.5h7.33a.5.5,0,0,1,.5.5v71A.5.5,0,0,1,669.92,307Zm-6.83-1h6.33V236h-6.33Z" style="fill:#263238"></path><rect x="525.49" y="235.46" width="75.36" height="71.03" style="fill:#263238"></rect><path d="M600.85,307H525.49a.5.5,0,0,1-.5-.5v-71a.51.51,0,0,1,.5-.5h75.36a.5.5,0,0,1,.5.5v71A.5.5,0,0,1,600.85,307ZM526,306h74.36V236H526Z" style="fill:#263238"></path><rect x="525.49" y="287.02" width="75.36" height="3.51" style="fill:#fff"></rect><path d="M600.85,291H525.49a.5.5,0,0,1-.5-.5V287a.51.51,0,0,1,.5-.5h75.36a.5.5,0,0,1,.5.5v3.51A.5.5,0,0,1,600.85,291ZM526,290h74.36v-2.51H526Z" style="fill:#263238"></path><rect x="559.51" y="235.46" width="7.34" height="71.03" style="fill:#fff"></rect><path d="M566.84,307h-7.33a.5.5,0,0,1-.5-.5v-71a.5.5,0,0,1,.5-.5h7.33a.5.5,0,0,1,.5.5v71A.5.5,0,0,1,566.84,307ZM560,306h6.33V236H560Z" style="fill:#263238"></path><path d="M321.64,207.16q-1-6.6-2-13.21l3.21-.42c.25,1.79.5,3.57.74,5.36l2.21-.27c-.24-1.79-.47-3.58-.71-5.36l3.23-.38q.82,6.63,1.64,13.25l-3.11.36c-.26-1.93-.51-3.85-.77-5.78l-2.19.27c.27,1.93.54,3.85.8,5.78Z" style="fill:#263238"></path><path d="M332.13,205.9q-.78-6.63-1.55-13.26c1.07-.12,2.15-.22,3.22-.33q.7,6.65,1.42,13.28Z" style="fill:#263238"></path><path d="M341,205.27a4,4,0,0,1-2.35-.38,3.13,3.13,0,0,1-1.35-1.51,7.35,7.35,0,0,1-.6-2.37l-.45-4.46a6.84,6.84,0,0,1,.14-2.48,3.13,3.13,0,0,1,1.2-1.72,5.14,5.14,0,0,1,2.57-.78,5.31,5.31,0,0,1,2.59.3,2.84,2.84,0,0,1,1.43,1.27,4.88,4.88,0,0,1,.55,2l.06.85-3.11.23-.09-1.09a5.76,5.76,0,0,0-.13-.78,1.07,1.07,0,0,0-.34-.56,1,1,0,0,0-.74-.16.94.94,0,0,0-.73.31,1.2,1.2,0,0,0-.24.66,4.19,4.19,0,0,0,0,.79c.19,2,.37,4.1.56,6.15a4,4,0,0,0,.17.82,1.24,1.24,0,0,0,.41.6,1.24,1.24,0,0,0,1.47-.13,1.31,1.31,0,0,0,.31-.66,3.4,3.4,0,0,0,0-.85l-.14-1.56-1.28.1-.15-1.72,4.14-.31q.26,3.45.52,6.9l-2.05.15c-.08-.37-.17-.73-.26-1.09a2.4,2.4,0,0,1-.74,1A2.57,2.57,0,0,1,341,205.27Z" style="fill:#263238"></path><path d="M347.44,204.61q-.46-6.66-.92-13.31l3.23-.19c.1,1.8.21,3.59.32,5.39l2.22-.11c-.1-1.8-.19-3.6-.29-5.4l3.25-.14.58,13.33-3.12.14q-.16-2.91-.31-5.82l-2.21.11.35,5.82Z" style="fill:#263238"></path><path d="M366.13,204.13a4.93,4.93,0,0,1-2.21-.42,2.92,2.92,0,0,1-1.36-1.35A6,6,0,0,1,362,200l2.68-.43a5.87,5.87,0,0,0,.19,1.38,1.56,1.56,0,0,0,.43.75,1,1,0,0,0,.66.23c.33,0,.54-.11.63-.32a1.52,1.52,0,0,0,.15-.66,2.28,2.28,0,0,0-.44-1.39,6,6,0,0,0-1.16-1.13l-1.25-1a6.82,6.82,0,0,1-1.41-1.43,3.47,3.47,0,0,1-.6-2,3.11,3.11,0,0,1,1-2.61,4.6,4.6,0,0,1,3-.95,4.19,4.19,0,0,1,1.89.35,2.74,2.74,0,0,1,1.09.94,3.7,3.7,0,0,1,.51,1.24,7,7,0,0,1,.15,1.24l-2.75.33a7.18,7.18,0,0,0-.09-1,1.22,1.22,0,0,0-.27-.67.82.82,0,0,0-1.26.12,1.29,1.29,0,0,0-.19.69,1.82,1.82,0,0,0,.4,1.21,7.92,7.92,0,0,0,1,1l1.2,1a7.6,7.6,0,0,1,1.59,1.67,4,4,0,0,1,.65,2.33,3.24,3.24,0,0,1-1.73,2.92A4.1,4.1,0,0,1,366.13,204.13Z" style="fill:#263238"></path><path d="M375.34,204.15a5.1,5.1,0,0,1-2.52-.58,3.1,3.1,0,0,1-1.3-1.56,6.69,6.69,0,0,1-.38-2.35c0-1.6,0-3.21,0-4.81a6.5,6.5,0,0,1,.41-2.38,3,3,0,0,1,1.37-1.53,5.2,5.2,0,0,1,2.63-.51,5.29,5.29,0,0,1,2.53.53,2.76,2.76,0,0,1,1.25,1.39,5.14,5.14,0,0,1,.32,2c0,.38,0,.76,0,1.15l-3.11-.07,0-1.33c0-.27,0-.52,0-.76a1.12,1.12,0,0,0-.25-.61,1.24,1.24,0,0,0-1.48,0,1.13,1.13,0,0,0-.32.61,4.92,4.92,0,0,0-.07.78q0,3.15-.08,6.28a4.21,4.21,0,0,0,.06.82,1.16,1.16,0,0,0,.31.59,1,1,0,0,0,.69.23.89.89,0,0,0,.7-.22,1.18,1.18,0,0,0,.27-.62,4.9,4.9,0,0,0,.07-.77l0-1.4,3.08.07,0,1.15a5.4,5.4,0,0,1-.42,2,2.83,2.83,0,0,1-1.27,1.38A4.91,4.91,0,0,1,375.34,204.15Z" style="fill:#263238"></path><path d="M381.14,204.08q.23-6.66.46-13.33l3.23.11-.24,5.4,2.22.09c.09-1.79.18-3.59.28-5.39l3.24.16q-.39,6.66-.8,13.32l-3.12-.15.3-5.83-2.21-.09c-.09,1.94-.17,3.88-.26,5.82Z" style="fill:#263238"></path><path d="M395.67,205a5.17,5.17,0,0,1-2.46-.7,3,3,0,0,1-1.21-1.59,6.15,6.15,0,0,1-.25-2.38l.33-5a6,6,0,0,1,.57-2.32,3,3,0,0,1,1.46-1.41,5.61,5.61,0,0,1,2.64-.34,5.46,5.46,0,0,1,2.58.72,3,3,0,0,1,1.24,1.59,6,6,0,0,1,.19,2.39l-.45,4.94a6.41,6.41,0,0,1-.62,2.31,3,3,0,0,1-1.46,1.4A5.31,5.31,0,0,1,395.67,205Zm.16-2.09a.94.94,0,0,0,.73-.18,1.11,1.11,0,0,0,.35-.57,3.48,3.48,0,0,0,.13-.73l.53-6.4a3.83,3.83,0,0,0,0-.76,1.1,1.1,0,0,0-.26-.6,1,1,0,0,0-.72-.29,1,1,0,0,0-.71.18,1.08,1.08,0,0,0-.35.57,3.47,3.47,0,0,0-.13.74q-.24,3.19-.49,6.41a6.06,6.06,0,0,0,0,.74,1.1,1.1,0,0,0,.23.61A.92.92,0,0,0,395.83,202.94Z" style="fill:#263238"></path><path d="M405.8,205.9a5.13,5.13,0,0,1-2.44-.77,3,3,0,0,1-1.16-1.63,6,6,0,0,1-.17-2.38l.48-4.93a6,6,0,0,1,.64-2.31,3,3,0,0,1,1.51-1.36,5.38,5.38,0,0,1,2.65-.27,5.49,5.49,0,0,1,2.55.79,3,3,0,0,1,1.2,1.63,6.14,6.14,0,0,1,.12,2.39c-.21,1.64-.41,3.28-.61,4.92a6.3,6.3,0,0,1-.69,2.29,3.1,3.1,0,0,1-1.51,1.37A5.22,5.22,0,0,1,405.8,205.9Zm.23-2.08a1,1,0,0,0,.74-.16,1.24,1.24,0,0,0,.36-.56,4.29,4.29,0,0,0,.15-.73L408,196a3.78,3.78,0,0,0,0-.75,1.13,1.13,0,0,0-.23-.61,1,1,0,0,0-.71-.3,1,1,0,0,0-.72.16,1,1,0,0,0-.37.55,4,4,0,0,0-.15.74l-.69,6.39a4.61,4.61,0,0,0,0,.74,1.13,1.13,0,0,0,.22.62A.91.91,0,0,0,406,203.82Z" style="fill:#263238"></path><path d="M411.93,206.37q.85-6.63,1.72-13.25l3.21.4q-.78,5.63-1.57,11.25c1.08.13,2.15.28,3.23.42l-.3,2C416.13,206.88,414,206.61,411.93,206.37Z" style="fill:#263238"></path></g><g id="freepik--Trees--inject-71"><path d="M130.73,50.85c-53.41.09-96.67,41.21-96.67,91.92v.76a49.61,49.61,0,0,0,50.76,49.06,72.75,72.75,0,0,1,13.42.85c9.14,1.48,16.22,6.84,21,13a14,14,0,0,0,11,5.61h1a14,14,0,0,0,11-5.61c4.79-6.19,11.87-11.55,21-13a72.75,72.75,0,0,1,13.42-.85,49.61,49.61,0,0,0,50.76-49.06v-.76C227.39,92.06,184.13,50.94,130.73,50.85Z" style="fill:#92E3A9"></path><path d="M130.73,50.85c-53.41.09-96.67,41.21-96.67,91.92v.76a49.61,49.61,0,0,0,50.76,49.06,72.75,72.75,0,0,1,13.42.85c9.14,1.48,16.22,6.84,21,13a14,14,0,0,0,11,5.61h1a14,14,0,0,0,11-5.61c4.79-6.19,11.87-11.55,21-13a72.75,72.75,0,0,1,13.42-.85,49.61,49.61,0,0,0,50.76-49.06v-.76C227.39,92.06,184.13,50.94,130.73,50.85Z" style="fill:#fff;opacity:0.30000000000000004"></path><path d="M114,131.61s-1.92-5.46-6-7.37a33.11,33.11,0,0,0-6.83-2.46S103.34,133,114,131.61Z" style="fill:#fff"></path><path d="M118.93,117.09s-.31-5.78-3.71-8.75a33.47,33.47,0,0,0-5.88-4.26S108.32,115.44,118.93,117.09Z" style="fill:#fff"></path><path d="M164.45,161.33s-3.67-4.47-8.17-4.87a33.83,33.83,0,0,0-7.26,0S154.91,166.26,164.45,161.33Z" style="fill:#fff"></path><path d="M183.8,172.06s-3.66-4.48-8.16-4.87a33,33,0,0,0-7.26,0S174.26,177,183.8,172.06Z" style="fill:#fff"></path><path d="M92.93,160s3.67-4.48,8.17-4.88a33.83,33.83,0,0,1,7.26,0S102.47,164.89,92.93,160Z" style="fill:#fff"></path><path d="M65.93,168.13s3.66-4.48,8.17-4.87a33.4,33.4,0,0,1,7.25,0S75.47,173.06,65.93,168.13Z" style="fill:#fff"></path><path d="M102.82,112.18s-.31-5.78-3.72-8.76a33.91,33.91,0,0,0-5.87-4.26S92.21,110.52,102.82,112.18Z" style="fill:#fff"></path><path d="M87,92.89s-.32-5.77-3.72-8.75a33.23,33.23,0,0,0-5.87-4.26S76.43,91.24,87,92.89Z" style="fill:#fff"></path><path d="M156.34,115.45s.32-5.77,3.72-8.75a33.23,33.23,0,0,1,5.87-4.26S167,113.8,156.34,115.45Z" style="fill:#fff"></path><path d="M175.81,104.78s.32-5.78,3.72-8.76a33.91,33.91,0,0,1,5.87-4.26S186.42,103.12,175.81,104.78Z" style="fill:#fff"></path><path d="M129.7,108s3.33-4.73,2.51-9.17a33.53,33.53,0,0,0-2-7S122.4,100.14,129.7,108Z" style="fill:#fff"></path><path d="M133.41,129.77s.55-5.76-2.38-9.2a33.39,33.39,0,0,0-5.18-5.09S123.17,126.57,133.41,129.77Z" style="fill:#fff"></path><path d="M119.67,103.46s1.73-5.53-.42-9.51a33.39,33.39,0,0,0-4-6S110.31,98.19,119.67,103.46Z" style="fill:#fff"></path><path d="M119.67,81.48S121.4,76,119.25,72a32.92,32.92,0,0,0-4-6S110.31,76.21,119.67,81.48Z" style="fill:#fff"></path><path d="M124,146.33s1.73-5.52-.42-9.5a33.28,33.28,0,0,0-4-6.05S114.68,141.07,124,146.33Z" style="fill:#fff"></path><path d="M137,139.84s4.89-3.09,5.83-7.52a34,34,0,0,0,.85-7.2S133.24,129.78,137,139.84Z" style="fill:#fff"></path><path d="M137.56,103.46s-1.72-5.53.42-9.51a34,34,0,0,1,4-6S146.92,98.19,137.56,103.46Z" style="fill:#fff"></path><path d="M155.76,84.85s-1.73-5.52.41-9.5a33.94,33.94,0,0,1,4-6S165.11,79.58,155.76,84.85Z" style="fill:#fff"></path><path d="M144.38,117.34s4.87-3.12,5.79-7.54a33.36,33.36,0,0,0,.82-7.21S140.6,107.29,144.38,117.34Z" style="fill:#fff"></path><path d="M157.53,132.46s5.6-1.45,7.84-5.37a33.59,33.59,0,0,0,3-6.6S157.05,121.74,157.53,132.46Z" style="fill:#fff"></path><path d="M158.79,146s5.25,2.43,9.47.81a33.11,33.11,0,0,0,6.51-3.2S165.21,137.37,158.79,146Z" style="fill:#fff"></path><path d="M166.16,133.68s5.25,2.43,9.47.81a33,33,0,0,0,6.52-3.2S172.58,125.08,166.16,133.68Z" style="fill:#fff"></path><path d="M189.4,134.83s5.26,2.42,9.48.81a33.82,33.82,0,0,0,6.51-3.2S195.82,126.22,189.4,134.83Z" style="fill:#fff"></path><path d="M92.6,141.53s3.53,4.59,8,5.12a33.43,33.43,0,0,0,7.25.19S102.28,136.89,92.6,141.53Z" style="fill:#fff"></path><path d="M81.13,125.7s3.53,4.58,8,5.11a33.43,33.43,0,0,0,7.25.19S90.81,121.05,81.13,125.7Z" style="fill:#fff"></path><path d="M54.12,122.56s3.53,4.58,8,5.11a33.54,33.54,0,0,0,7.26.19S63.81,117.91,54.12,122.56Z" style="fill:#fff"></path><polygon points="164.16 163.81 142.78 168.44 168.3 136.65 133.45 169.13 133.24 171.38 131.68 137.24 129.22 191.17 94.86 159.14 120.38 190.93 98.99 186.31 126.02 197.97 128.75 201.37 124 379.81 139.36 379.81 133.62 179.85 137.13 175.47 164.16 163.81" style="fill:#263238"></polygon><path d="M603.39,113.93c-42.26.07-76.49,32.61-76.49,72.74v.6a39.25,39.25,0,0,0,40.17,38.82,57.83,57.83,0,0,1,10.62.68,26.45,26.45,0,0,1,16.62,10.31,11.08,11.08,0,0,0,8.68,4.43h.81a11.08,11.08,0,0,0,8.67-4.43,26.5,26.5,0,0,1,16.63-10.31,57.83,57.83,0,0,1,10.62-.68,39.26,39.26,0,0,0,40.17-38.82v-.6C679.89,146.54,645.65,114,603.39,113.93Z" style="fill:#92E3A9"></path><path d="M603.39,113.93c-42.26.07-76.49,32.61-76.49,72.74v.6a39.25,39.25,0,0,0,40.17,38.82,57.83,57.83,0,0,1,10.62.68,26.45,26.45,0,0,1,16.62,10.31,11.08,11.08,0,0,0,8.68,4.43h.81a11.08,11.08,0,0,0,8.67-4.43,26.5,26.5,0,0,1,16.63-10.31,57.83,57.83,0,0,1,10.62-.68,39.26,39.26,0,0,0,40.17-38.82v-.6C679.89,146.54,645.65,114,603.39,113.93Z" style="fill:#fff;opacity:0.30000000000000004"></path><path d="M590.15,177.84s-1.52-4.33-4.76-5.84a26.5,26.5,0,0,0-5.4-1.94S581.72,178.92,590.15,177.84Z" style="fill:#fff"></path><path d="M594.06,166.35s-.25-4.57-2.94-6.93a26,26,0,0,0-4.65-3.37S585.67,165,594.06,166.35Z" style="fill:#fff"></path><path d="M630.08,201.36s-2.9-3.55-6.46-3.86a26.87,26.87,0,0,0-5.75,0S622.53,205.26,630.08,201.36Z" style="fill:#fff"></path><path d="M645.4,209.85s-2.9-3.55-6.47-3.86a26.79,26.79,0,0,0-5.74,0S637.85,213.75,645.4,209.85Z" style="fill:#fff"></path><path d="M573.49,200.28s2.9-3.55,6.46-3.86a26.79,26.79,0,0,1,5.74,0S581,204.17,573.49,200.28Z" style="fill:#fff"></path><path d="M552.12,206.74s2.9-3.55,6.46-3.86a26.79,26.79,0,0,1,5.74,0S559.67,210.64,552.12,206.74Z" style="fill:#fff"></path><path d="M581.31,162.46s-.25-4.57-2.94-6.93a26,26,0,0,0-4.65-3.37S572.92,161.15,581.31,162.46Z" style="fill:#fff"></path><path d="M568.82,147.2s-.25-4.57-2.94-6.93a26,26,0,0,0-4.65-3.37S560.43,145.89,568.82,147.2Z" style="fill:#fff"></path><path d="M623.67,165.05s.25-4.57,2.94-6.93a26.88,26.88,0,0,1,4.64-3.37S632.06,163.74,623.67,165.05Z" style="fill:#fff"></path><path d="M639.07,156.6s.25-4.57,2.94-6.93a27.13,27.13,0,0,1,4.65-3.37S647.47,155.29,639.07,156.6Z" style="fill:#fff"></path><path d="M602.58,159.17s2.64-3.74,2-7.26a26.66,26.66,0,0,0-1.55-5.53S596.81,152.93,602.58,159.17Z" style="fill:#fff"></path><path d="M605.52,176.38s.43-4.56-1.88-7.28a27,27,0,0,0-4.1-4S597.41,173.85,605.52,176.38Z" style="fill:#fff"></path><path d="M594.64,155.56s1.37-4.37-.33-7.52a26.29,26.29,0,0,0-3.17-4.79S587.24,151.39,594.64,155.56Z" style="fill:#fff"></path><path d="M594.64,138.16s1.37-4.37-.33-7.52a25.93,25.93,0,0,0-3.17-4.78S587.24,134,594.64,138.16Z" style="fill:#fff"></path><path d="M598.1,189.48s1.37-4.37-.33-7.51a26.29,26.29,0,0,0-3.17-4.79S590.7,185.32,598.1,189.48Z" style="fill:#fff"></path><path d="M608.35,184.35s3.86-2.45,4.6-5.95a27,27,0,0,0,.68-5.7S605.39,176.39,608.35,184.35Z" style="fill:#fff"></path><path d="M608.81,155.56s-1.37-4.37.32-7.52a26.59,26.59,0,0,1,3.18-4.79S616.21,151.39,608.81,155.56Z" style="fill:#fff"></path><path d="M623.2,140.83s-1.37-4.37.33-7.52a26.57,26.57,0,0,1,3.17-4.78S630.61,136.67,623.2,140.83Z" style="fill:#fff"></path><path d="M614.2,166.54s3.86-2.46,4.58-6a26.35,26.35,0,0,0,.65-5.71S611.21,158.59,614.2,166.54Z" style="fill:#fff"></path><path d="M624.6,178.51s4.44-1.15,6.21-4.25A26.65,26.65,0,0,0,633.2,169S624.23,170,624.6,178.51Z" style="fill:#fff"></path><path d="M625.6,189.2s4.16,1.92,7.5.64a26.64,26.64,0,0,0,5.15-2.53S630.68,182.39,625.6,189.2Z" style="fill:#fff"></path><path d="M631.43,179.48s4.16,1.92,7.5.64a27,27,0,0,0,5.16-2.53S636.52,172.67,631.43,179.48Z" style="fill:#fff"></path><path d="M649.83,180.38s4.15,1.92,7.5.64a26.64,26.64,0,0,0,5.15-2.53S654.91,173.57,649.83,180.38Z" style="fill:#fff"></path><path d="M573.22,185.69s2.8,3.63,6.35,4.05a27.26,27.26,0,0,0,5.74.15S580.88,182,573.22,185.69Z" style="fill:#fff"></path><path d="M564.15,173.16s2.79,3.62,6.34,4a26.43,26.43,0,0,0,5.74.15S571.81,169.48,564.15,173.16Z" style="fill:#fff"></path><path d="M542.78,170.67s2.79,3.63,6.34,4.05a26.43,26.43,0,0,0,5.74.15S550.44,167,542.78,170.67Z" style="fill:#fff"></path><polygon points="629.86 203.32 612.93 206.98 633.13 181.82 605.55 207.53 605.38 209.31 604.15 182.29 602.2 224.97 575.01 199.62 595.2 224.78 578.28 221.12 599.67 230.35 601.83 233.04 598.07 374.25 610.22 374.25 605.69 216.01 608.46 212.55 629.86 203.32" style="fill:#263238"></polygon><path d="M691.35,217.87c-25.39,0-46,19.59-46,43.69v.37a23.58,23.58,0,0,0,24.13,23.32,35,35,0,0,1,6.38.4,15.91,15.91,0,0,1,10,6.2,6.65,6.65,0,0,0,5.21,2.66h.48a6.65,6.65,0,0,0,5.21-2.66,15.91,15.91,0,0,1,10-6.2,35,35,0,0,1,6.38-.4,23.58,23.58,0,0,0,24.13-23.32v-.37C737.3,237.46,716.74,217.91,691.35,217.87Z" style="fill:#92E3A9"></path><path d="M691.35,217.87c-25.39,0-46,19.59-46,43.69v.37a23.58,23.58,0,0,0,24.13,23.32,35,35,0,0,1,6.38.4,15.91,15.91,0,0,1,10,6.2,6.65,6.65,0,0,0,5.21,2.66h.48a6.65,6.65,0,0,0,5.21-2.66,15.91,15.91,0,0,1,10-6.2,35,35,0,0,1,6.38-.4,23.58,23.58,0,0,0,24.13-23.32v-.37C737.3,237.46,716.74,217.91,691.35,217.87Z" style="fill:#fff;opacity:0.30000000000000004"></path><path d="M683.39,256.26s-.91-2.6-2.85-3.51a16.25,16.25,0,0,0-3.25-1.16S678.33,256.91,683.39,256.26Z" style="fill:#fff"></path><path d="M685.74,249.36s-.15-2.75-1.76-4.16a16,16,0,0,0-2.79-2S680.7,248.57,685.74,249.36Z" style="fill:#fff"></path><path d="M707.38,270.39s-1.74-2.13-3.88-2.32a16.22,16.22,0,0,0-3.45,0S702.85,272.73,707.38,270.39Z" style="fill:#fff"></path><path d="M716.58,275.49s-1.74-2.13-3.88-2.32a16.22,16.22,0,0,0-3.45,0S712.05,277.83,716.58,275.49Z" style="fill:#fff"></path><path d="M673.39,269.74s1.74-2.13,3.88-2.32a16.22,16.22,0,0,1,3.45,0S677.92,272.08,673.39,269.74Z" style="fill:#fff"></path><path d="M660.55,273.62s1.74-2.13,3.88-2.32a16.22,16.22,0,0,1,3.45,0S665.08,276,660.55,273.62Z" style="fill:#fff"></path><path d="M678.09,247a6.75,6.75,0,0,0-1.77-4.16,16.68,16.68,0,0,0-2.79-2S673,246.24,678.09,247Z" style="fill:#fff"></path><path d="M670.58,237.86s-.15-2.75-1.76-4.17a16,16,0,0,0-2.8-2S665.54,237.07,670.58,237.86Z" style="fill:#fff"></path><path d="M703.53,248.58s.15-2.75,1.77-4.16a15.54,15.54,0,0,1,2.79-2S708.57,247.79,703.53,248.58Z" style="fill:#fff"></path><path d="M712.78,243.5a6.75,6.75,0,0,1,1.77-4.16,16.18,16.18,0,0,1,2.79-2S717.83,242.72,712.78,243.5Z" style="fill:#fff"></path><path d="M690.86,245.05s1.59-2.25,1.2-4.36a15.41,15.41,0,0,0-.94-3.32S687.39,241.3,690.86,245.05Z" style="fill:#fff"></path><path d="M692.63,255.39s.26-2.74-1.13-4.38a15.8,15.8,0,0,0-2.47-2.42S687.76,253.86,692.63,255.39Z" style="fill:#fff"></path><path d="M686.1,242.88s.82-2.63-.2-4.52a16.11,16.11,0,0,0-1.91-2.88S681.65,240.37,686.1,242.88Z" style="fill:#fff"></path><path d="M686.1,232.43s.82-2.63-.2-4.52A15.74,15.74,0,0,0,684,225S681.65,229.93,686.1,232.43Z" style="fill:#fff"></path><path d="M688.17,263.26s.82-2.63-.2-4.52a16.09,16.09,0,0,0-1.9-2.87S683.72,260.75,688.17,263.26Z" style="fill:#fff"></path><path d="M694.33,260.17s2.32-1.47,2.76-3.57a15.85,15.85,0,0,0,.41-3.43S692.55,255.39,694.33,260.17Z" style="fill:#fff"></path><path d="M694.6,242.88s-.82-2.63.2-4.52a16.11,16.11,0,0,1,1.91-2.88S699.05,240.37,694.6,242.88Z" style="fill:#fff"></path><path d="M703.25,234a6.76,6.76,0,0,1,.2-4.52,16.09,16.09,0,0,1,1.9-2.87S707.7,231.53,703.25,234Z" style="fill:#fff"></path><path d="M697.84,249.48s2.32-1.49,2.76-3.59a16.46,16.46,0,0,0,.39-3.43S696.05,244.7,697.84,249.48Z" style="fill:#fff"></path><path d="M704.09,256.67s2.66-.69,3.73-2.56a15.88,15.88,0,0,0,1.44-3.14S703.86,251.57,704.09,256.67Z" style="fill:#fff"></path><path d="M704.69,263.09s2.5,1.15,4.5.38a16.14,16.14,0,0,0,3.1-1.52S707.74,259,704.69,263.09Z" style="fill:#fff"></path><path d="M708.19,257.25s2.5,1.15,4.51.38a16.14,16.14,0,0,0,3.1-1.52S711.25,253.16,708.19,257.25Z" style="fill:#fff"></path><path d="M719.24,257.79s2.5,1.15,4.51.38a15.14,15.14,0,0,0,3.09-1.52S722.3,253.7,719.24,257.79Z" style="fill:#fff"></path><path d="M673.23,261s1.67,2.18,3.81,2.43a16.08,16.08,0,0,0,3.45.09S677.83,258.77,673.23,261Z" style="fill:#fff"></path><path d="M667.77,253.45s1.68,2.18,3.82,2.43A16,16,0,0,0,675,256S672.38,251.24,667.77,253.45Z" style="fill:#fff"></path><path d="M654.94,252s1.67,2.18,3.81,2.43a16.08,16.08,0,0,0,3.45.09S659.54,249.75,654.94,252Z" style="fill:#fff"></path><polygon points="707.25 271.57 697.08 273.77 709.21 258.65 692.65 274.1 692.54 275.17 691.8 258.93 690.63 284.57 674.3 269.35 686.43 284.46 676.27 282.26 689.12 287.8 690.41 289.42 688.15 374.25 695.45 374.25 692.73 279.19 694.4 277.11 707.25 271.57" style="fill:#263238"></polygon><path d="M77.86,217.87c-25.39,0-46,19.59-46,43.69v.37A23.59,23.59,0,0,0,56,285.25a34.89,34.89,0,0,1,6.38.4,15.89,15.89,0,0,1,10,6.2,6.67,6.67,0,0,0,5.21,2.66h.49a6.65,6.65,0,0,0,5.21-2.66,15.89,15.89,0,0,1,10-6.2,34.89,34.89,0,0,1,6.38-.4,23.59,23.59,0,0,0,24.13-23.32v-.37C123.81,237.46,103.24,217.91,77.86,217.87Z" style="fill:#92E3A9"></path><path d="M77.86,217.87c-25.39,0-46,19.59-46,43.69v.37A23.59,23.59,0,0,0,56,285.25a34.89,34.89,0,0,1,6.38.4,15.89,15.89,0,0,1,10,6.2,6.67,6.67,0,0,0,5.21,2.66h.49a6.65,6.65,0,0,0,5.21-2.66,15.89,15.89,0,0,1,10-6.2,34.89,34.89,0,0,1,6.38-.4,23.59,23.59,0,0,0,24.13-23.32v-.37C123.81,237.46,103.24,217.91,77.86,217.87Z" style="fill:#fff;opacity:0.30000000000000004"></path><path d="M69.9,256.26s-.91-2.6-2.86-3.51a16.31,16.31,0,0,0-3.24-1.16S64.84,256.91,69.9,256.26Z" style="fill:#fff"></path><path d="M72.25,249.36s-.15-2.75-1.77-4.16a15.54,15.54,0,0,0-2.79-2S67.21,248.57,72.25,249.36Z" style="fill:#fff"></path><path d="M93.89,270.39s-1.75-2.13-3.89-2.32a16.22,16.22,0,0,0-3.45,0S89.35,272.73,93.89,270.39Z" style="fill:#fff"></path><path d="M103.09,275.49s-1.74-2.13-3.88-2.32a16.17,16.17,0,0,0-3.45,0S98.55,277.83,103.09,275.49Z" style="fill:#fff"></path><path d="M59.89,269.74s1.74-2.13,3.88-2.32a16.22,16.22,0,0,1,3.45,0S64.43,272.08,59.89,269.74Z" style="fill:#fff"></path><path d="M47.05,273.62s1.74-2.13,3.89-2.32a16.1,16.1,0,0,1,3.44,0S51.59,276,47.05,273.62Z" style="fill:#fff"></path><path d="M64.59,247a6.75,6.75,0,0,0-1.77-4.16,16.21,16.21,0,0,0-2.79-2S59.55,246.24,64.59,247Z" style="fill:#fff"></path><path d="M57.09,237.86s-.15-2.75-1.77-4.17a16.18,16.18,0,0,0-2.79-2S52,237.07,57.09,237.86Z" style="fill:#fff"></path><path d="M90,248.58s.15-2.75,1.77-4.16a16,16,0,0,1,2.79-2S95.08,247.79,90,248.58Z" style="fill:#fff"></path><path d="M99.29,243.5a6.75,6.75,0,0,1,1.77-4.16,15.74,15.74,0,0,1,2.79-2S104.33,242.72,99.29,243.5Z" style="fill:#fff"></path><path d="M77.37,245.05s1.58-2.25,1.19-4.36a15.84,15.84,0,0,0-.93-3.32S73.9,241.3,77.37,245.05Z" style="fill:#fff"></path><path d="M79.13,255.39s.26-2.74-1.13-4.38a16.06,16.06,0,0,0-2.46-2.42S74.26,253.86,79.13,255.39Z" style="fill:#fff"></path><path d="M72.6,242.88s.82-2.63-.2-4.52a16.48,16.48,0,0,0-1.9-2.88S68.15,240.37,72.6,242.88Z" style="fill:#fff"></path><path d="M72.6,232.43s.82-2.63-.2-4.52A16.09,16.09,0,0,0,70.5,225S68.15,229.93,72.6,232.43Z" style="fill:#fff"></path><path d="M74.68,263.26s.82-2.63-.2-4.52a15.74,15.74,0,0,0-1.91-2.87S70.23,260.75,74.68,263.26Z" style="fill:#fff"></path><path d="M80.83,260.17s2.32-1.47,2.77-3.57a16.15,16.15,0,0,0,.4-3.43S79.05,255.39,80.83,260.17Z" style="fill:#fff"></path><path d="M81.11,242.88s-.82-2.63.19-4.52a16.11,16.11,0,0,1,1.91-2.88S85.56,240.37,81.11,242.88Z" style="fill:#fff"></path><path d="M89.75,234a6.76,6.76,0,0,1,.2-4.52,15.74,15.74,0,0,1,1.91-2.87S94.2,231.53,89.75,234Z" style="fill:#fff"></path><path d="M84.35,249.48s2.31-1.49,2.75-3.59a15.65,15.65,0,0,0,.39-3.43S82.55,244.7,84.35,249.48Z" style="fill:#fff"></path><path d="M90.6,256.67s2.66-.69,3.73-2.56A16.14,16.14,0,0,0,95.76,251S90.37,251.57,90.6,256.67Z" style="fill:#fff"></path><path d="M91.19,263.09s2.5,1.15,4.51.38A16.14,16.14,0,0,0,98.8,262S94.25,259,91.19,263.09Z" style="fill:#fff"></path><path d="M94.7,257.25s2.5,1.15,4.5.38a16.14,16.14,0,0,0,3.1-1.52S97.75,253.16,94.7,257.25Z" style="fill:#fff"></path><path d="M105.75,257.79s2.5,1.15,4.5.38a15.44,15.44,0,0,0,3.1-1.52S108.8,253.7,105.75,257.79Z" style="fill:#fff"></path><path d="M59.73,261s1.68,2.18,3.81,2.43a16.06,16.06,0,0,0,3.45.09S64.33,258.77,59.73,261Z" style="fill:#fff"></path><path d="M54.28,253.45s1.68,2.18,3.81,2.43a16.06,16.06,0,0,0,3.45.09S58.88,251.24,54.28,253.45Z" style="fill:#fff"></path><path d="M41.44,252s1.68,2.18,3.81,2.43a16.06,16.06,0,0,0,3.45.09S46,249.75,41.44,252Z" style="fill:#fff"></path><polygon points="93.75 271.57 83.59 273.77 95.72 258.65 79.15 274.1 79.05 275.17 78.31 258.93 77.14 284.57 60.81 269.35 72.94 284.46 62.77 282.26 75.62 287.8 76.92 289.42 74.66 374.25 81.96 374.25 79.23 279.19 80.9 277.11 93.75 271.57" style="fill:#263238"></polygon></g><g id="freepik--Plants--inject-71"><path d="M627.23,376a.21.21,0,0,1-.12-.25,26.63,26.63,0,0,1,19.13-17.58.23.23,0,0,1,.26.16.22.22,0,0,1-.16.25,26.22,26.22,0,0,0-18.83,17.3.21.21,0,0,1-.27.13Z" style="fill:#263238"></path><path d="M634.26,370.4c-2-1.64-5.11,1.07-5.06,1.17-.23.38-.44.77-.64,1.16.43-.4,1.87-.63,3.75-.21S636.2,371.88,634.26,370.4Z" style="fill:#263238"></path><path d="M628.33,365.94c-2-1.53-3,1.8-1.66,3.35s1.88,2.84,1.86,3.43c.17-.41.36-.81.55-1.21C629,371.5,630.17,367.46,628.33,365.94Z" style="fill:#263238"></path><path d="M636.79,367.56c-1.67-1.94-5.19.17-5.16.27q-.42.5-.81,1c.49-.31,1.94-.28,3.72.46S638.45,369.35,636.79,367.56Z" style="fill:#263238"></path><path d="M631.7,362.17c-1.71-1.84-3.21,1.25-2.18,3s1.39,3.1,1.27,3.67c.24-.37.49-.73.74-1.08C631.44,367.73,633.26,364,631.7,362.17Z" style="fill:#263238"></path><path d="M639.76,365.2c-1.34-2.19-5.14-.71-5.12-.61-.33.28-.65.57-1,.87.53-.23,2,.05,3.58,1.08S641.09,367.25,639.76,365.2Z" style="fill:#263238"></path><path d="M635.64,359c-1.38-2.11-3.37.69-2.64,2.57s.86,3.28.64,3.82c.3-.32.6-.63.91-.93C634.46,364.46,636.87,361.09,635.64,359Z" style="fill:#263238"></path><path d="M643.08,363.36c-1-2.38-5-1.55-5-1.45-.37.22-.74.45-1.1.69.56-.13,1.91.38,3.35,1.67S644.05,365.61,643.08,363.36Z" style="fill:#263238"></path><path d="M640.05,356.6c-1-2.31-3.45.12-3,2.1s.3,3.38,0,3.87c.34-.26.69-.52,1-.76C638,361.75,640.91,358.83,640.05,356.6Z" style="fill:#263238"></path><path d="M646.69,362.1c-.54-2.51-4.66-2.35-4.67-2.25-.4.15-.8.32-1.2.5.58,0,1.83.69,3,2.2S647.27,364.48,646.69,362.1Z" style="fill:#263238"></path><path d="M644.85,354.92c-.61-2.44-3.45-.45-3.39,1.57s-.28,3.39-.65,3.82l1.16-.58C641.89,359.67,645.32,357.26,644.85,354.92Z" style="fill:#263238"></path><path d="M644.36,358.9a15.43,15.43,0,0,1,5.08-2.46c2-.38,2.74,1,2.41,1.83s-1.7,1-2.88,1S644.38,358.84,644.36,358.9Z" style="fill:#263238"></path><path d="M644.31,359h0a.13.13,0,0,1-.06-.15h0a.11.11,0,0,1,.07-.09,15,15,0,0,1,5.12-2.47,2.32,2.32,0,0,1,2.29.61,1.43,1.43,0,0,1,.27,1.41c-.42,1.12-2.42,1.1-3,1.06-1.13-.16-4.25-.37-4.55-.35A.17.17,0,0,1,644.31,359Zm6.58-2.37a2.44,2.44,0,0,0-1.42-.08,15,15,0,0,0-4.68,2.17l1.46.1c.91.06,2.12.17,2.74.25,1.13.07,2.45-.13,2.73-.88a1.15,1.15,0,0,0-.23-1.13A1.43,1.43,0,0,0,650.89,356.66Z" style="fill:#263238"></path><path d="M627.38,375.83a.21.21,0,0,1-.27-.08,26.61,26.61,0,0,1,.15-26,.2.2,0,0,1,.28-.08.2.2,0,0,1,.08.28,26.21,26.21,0,0,0-.14,25.57.22.22,0,0,1-.09.29Z" style="fill:#263238"></path><path d="M628.05,366.87c-2.54.33-2.68,4.47-2.58,4.5.13.43.27.84.42,1.26,0-.59.81-1.79,2.4-2.89S630.46,366.46,628.05,366.87Z" style="fill:#263238"></path><path d="M620.76,368.18c-2.48.41-.71,3.4,1.32,3.5s3.36.55,3.77,1c-.18-.41-.34-.82-.5-1.24C625.27,371.48,623.12,367.87,620.76,368.18Z" style="fill:#263238"></path><path d="M627.7,363.08c-2.56-.09-3.4,3.92-3.31,4,.05.43.12.87.19,1.3.11-.58,1.11-1.62,2.87-2.42S630.15,363.08,627.7,363.08Z" style="fill:#263238"></path><path d="M620.29,363.14c-2.52,0-1.27,3.21.71,3.64s3.21,1.09,3.55,1.56c-.11-.42-.2-.85-.29-1.28C624.18,367.12,622.68,363.24,620.29,363.14Z" style="fill:#263238"></path><path d="M628,359.3c-2.51-.51-4,3.29-3.93,3.34,0,.43,0,.86,0,1.3.2-.55,1.37-1.39,3.24-1.89S630.4,359.71,628,359.3Z" style="fill:#263238"></path><path d="M620.67,358.12c-2.48-.42-1.79,2.94.09,3.69s3,1.61,3.24,2.13c0-.44-.06-.87-.07-1.3C623.84,362.68,623,358.62,620.67,358.12Z" style="fill:#263238"></path><path d="M628.9,355.62c-2.39-.93-4.5,2.58-4.43,2.64-.09.42-.17.84-.24,1.27.29-.5,1.58-1.14,3.5-1.31S631.21,356.43,628.9,355.62Z" style="fill:#263238"></path><path d="M621.89,353.23c-2.38-.83-2.26,2.61-.54,3.66s2.68,2.08,2.84,2.64c0-.43.09-.86.16-1.29C624.25,358.27,624.11,354.12,621.89,353.23Z" style="fill:#263238"></path><path d="M630.44,352.11c-2.21-1.31-4.9,1.82-4.83,1.89-.16.4-.31.81-.45,1.22.37-.45,1.75-.87,3.67-.72S632.57,353.3,630.44,352.11Z" style="fill:#263238"></path><path d="M623.93,348.58c-2.21-1.22-2.68,2.22-1.16,3.55s2.29,2.51,2.35,3.08c.11-.42.24-.84.37-1.25C625.39,354,626,349.83,623.93,348.58Z" style="fill:#263238"></path><path d="M626.51,351.64a15.29,15.29,0,0,1,1.65-5.4c1.07-1.71,2.61-1.31,3-.51s-.4,1.95-1.25,2.77S626.47,351.58,626.51,351.64Z" style="fill:#263238"></path><path d="M626.57,351.76h0a.14.14,0,0,1-.16,0h0a.1.1,0,0,1,0-.11,14.91,14.91,0,0,1,1.68-5.43,2.26,2.26,0,0,1,2-1.26,1.42,1.42,0,0,1,1.22.76c.53,1.07-.85,2.51-1.28,2.93-.89.72-3.17,2.86-3.36,3.09A.09.09,0,0,1,626.57,351.76Zm2.74-6.43a2.47,2.47,0,0,0-1,1,14.75,14.75,0,0,0-1.59,4.91l1.06-1c.67-.62,1.57-1.43,2-1.83.82-.78,1.57-1.88,1.22-2.6a1.14,1.14,0,0,0-1-.6A1.55,1.55,0,0,0,629.31,345.33Z" style="fill:#263238"></path><path d="M54.12,364a.13.13,0,0,1-.08-.17,17.39,17.39,0,0,1,12.5-11.48.14.14,0,0,1,.16.11.13.13,0,0,1-.1.16,17.13,17.13,0,0,0-12.3,11.3.15.15,0,0,1-.18.09Z" style="fill:#263238"></path><path d="M58.71,360.29c-1.3-1.07-3.34.7-3.31.76l-.42.76a3.3,3.3,0,0,1,2.46-.13C58.67,361.91,60,361.26,58.71,360.29Z" style="fill:#263238"></path><path d="M54.84,357.38c-1.31-1-1.94,1.17-1.09,2.19A4.84,4.84,0,0,1,55,361.8c.12-.26.24-.53.37-.79C55.26,361,56,358.37,54.84,357.38Z" style="fill:#263238"></path><path d="M60.36,358.43c-1.09-1.26-3.39.12-3.37.18-.18.22-.36.44-.53.67a3.24,3.24,0,0,1,2.43.3C60.06,360,61.45,359.61,60.36,358.43Z" style="fill:#263238"></path><path d="M57,354.92c-1.12-1.21-2.1.81-1.43,1.95a4.92,4.92,0,0,1,.83,2.4c.16-.24.32-.48.49-.71C56.86,358.54,58.05,356.1,57,354.92Z" style="fill:#263238"></path><path d="M62.3,356.89c-.87-1.43-3.36-.46-3.35-.39l-.63.56a3.35,3.35,0,0,1,2.34.71C61.74,358.4,63.17,358.23,62.3,356.89Z" style="fill:#263238"></path><path d="M59.61,352.87c-.9-1.38-2.2.45-1.73,1.68a4.94,4.94,0,0,1,.43,2.49c.19-.2.39-.41.59-.6C58.84,356.41,60.41,354.21,59.61,352.87Z" style="fill:#263238"></path><path d="M64.47,355.69c-.62-1.55-3.24-1-3.24-.94-.24.14-.48.29-.71.45a3.21,3.21,0,0,1,2.18,1.09C63.66,357.09,65.1,357.16,64.47,355.69Z" style="fill:#263238"></path><path d="M62.49,351.27c-.66-1.5-2.25.09-2,1.38a4.87,4.87,0,0,1,0,2.53c.23-.18.46-.34.69-.5C61.13,354.64,63.05,352.73,62.49,351.27Z" style="fill:#263238"></path><path d="M66.83,354.87c-.35-1.64-3-1.54-3-1.47l-.78.32a3.35,3.35,0,0,1,2,1.44C65.78,356.11,67.21,356.42,66.83,354.87Z" style="fill:#263238"></path><path d="M65.63,350.18c-.4-1.6-2.26-.29-2.22,1A4.88,4.88,0,0,1,63,353.7l.77-.38C63.69,353.28,65.93,351.71,65.63,350.18Z" style="fill:#263238"></path><path d="M65.31,352.78a10.17,10.17,0,0,1,3.32-1.61c1.29-.25,1.78.66,1.57,1.2s-1.11.68-1.88.63S65.32,352.74,65.31,352.78Z" style="fill:#263238"></path><path d="M65.27,352.86h0a.1.1,0,0,1,0-.1h0s0,0,0-.05a9.58,9.58,0,0,1,3.34-1.62,1.52,1.52,0,0,1,1.5.4.93.93,0,0,1,.17.92c-.27.73-1.58.72-2,.69-.74-.1-2.78-.24-3-.23Zm4.3-1.54a1.58,1.58,0,0,0-.93-.06,10,10,0,0,0-3.06,1.42l1,.06c.6.05,1.38.11,1.79.17.74,0,1.6-.08,1.78-.57a.72.72,0,0,0-.15-.74A.83.83,0,0,0,69.57,351.32Z" style="fill:#263238"></path><path d="M54.21,363.84a.12.12,0,0,1-.17-.06,17.4,17.4,0,0,1,.09-17,.14.14,0,0,1,.19-.05.13.13,0,0,1,0,.19,17.12,17.12,0,0,0-.09,16.7.15.15,0,0,1-.06.19Z" style="fill:#263238"></path><path d="M54.65,358c-1.66.22-1.75,2.93-1.68,2.95.08.27.17.55.27.82,0-.39.53-1.17,1.57-1.89S56.23,357.72,54.65,358Z" style="fill:#263238"></path><path d="M49.89,358.84c-1.62.27-.46,2.22.86,2.29a4.78,4.78,0,0,1,2.47.63q-.18-.4-.33-.81C52.84,361,51.43,358.64,49.89,358.84Z" style="fill:#263238"></path><path d="M54.42,355.51c-1.67-.06-2.22,2.56-2.16,2.59,0,.28.08.56.13.84.07-.37.72-1.05,1.87-1.58S56,355.51,54.42,355.51Z" style="fill:#263238"></path><path d="M49.58,355.55c-1.64,0-.83,2.09.46,2.38a4.85,4.85,0,0,1,2.32,1q-.11-.42-.18-.84C52.12,358.15,51.14,355.61,49.58,355.55Z" style="fill:#263238"></path><path d="M54.61,353C53,352.7,52,355.19,52,355.22c0,.28,0,.57,0,.85a3.26,3.26,0,0,1,2.11-1.23C55.34,354.48,56.19,353.31,54.61,353Z" style="fill:#263238"></path><path d="M49.83,352.27c-1.62-.27-1.17,1.92.06,2.41A5,5,0,0,1,52,356.07c0-.28,0-.57,0-.85C51.9,355.25,51.36,352.6,49.83,352.27Z" style="fill:#263238"></path><path d="M55.21,350.63c-1.56-.6-3,1.69-2.9,1.73-.06.28-.11.55-.15.83a3.29,3.29,0,0,1,2.28-.86C55.68,352.18,56.72,351.17,55.21,350.63Z" style="fill:#263238"></path><path d="M50.63,349.08c-1.56-.55-1.48,1.7-.35,2.39a4.85,4.85,0,0,1,1.85,1.72c0-.28.06-.56.1-.84C52.17,352.36,52.08,349.65,50.63,349.08Z" style="fill:#263238"></path><path d="M56.21,348.35c-1.44-.86-3.19,1.18-3.15,1.23-.11.26-.21.53-.3.79a3.35,3.35,0,0,1,2.4-.47C56.41,350,57.61,349.12,56.21,348.35Z" style="fill:#263238"></path><path d="M52,346c-1.44-.79-1.75,1.46-.76,2.32a4.87,4.87,0,0,1,1.54,2c.07-.28.15-.55.24-.82C52.91,349.56,53.29,346.85,52,346Z" style="fill:#263238"></path><path d="M53.64,348a10.28,10.28,0,0,1,1.08-3.52c.7-1.12,1.71-.86,2-.34s-.26,1.28-.82,1.81S53.62,348,53.64,348Z" style="fill:#263238"></path><path d="M53.68,348.12h0a.09.09,0,0,1-.1,0h0a.06.06,0,0,1,0-.07,9.65,9.65,0,0,1,1.09-3.55,1.49,1.49,0,0,1,1.31-.82,1,1,0,0,1,.8.49c.34.71-.56,1.65-.84,1.92-.58.47-2.07,1.87-2.19,2Zm1.8-4.21a1.63,1.63,0,0,0-.68.65,9.85,9.85,0,0,0-1,3.21l.7-.66c.44-.41,1-.94,1.34-1.2.53-.51,1-1.23.79-1.7a.76.76,0,0,0-.64-.39A1,1,0,0,0,55.48,343.91Z" style="fill:#263238"></path><path d="M595.38,372.47a.2.2,0,0,0,.12-.26,26.63,26.63,0,0,0-19.13-17.57.21.21,0,0,0-.26.16.22.22,0,0,0,.16.25,26.19,26.19,0,0,1,18.83,17.29.23.23,0,0,0,.27.14Z" style="fill:#263238"></path><path d="M588.36,366.86c2-1.63,5.1,1.08,5,1.17.23.39.44.77.64,1.17-.43-.4-1.87-.63-3.75-.21S586.41,368.35,588.36,366.86Z" style="fill:#263238"></path><path d="M594.28,362.41c2-1.54,3,1.79,1.67,3.35s-1.89,2.83-1.86,3.42c-.18-.41-.37-.81-.56-1.21C593.63,368,592.44,363.93,594.28,362.41Z" style="fill:#263238"></path><path d="M585.82,364c1.67-1.93,5.19.18,5.16.28q.42.49.81,1c-.49-.32-1.94-.29-3.72.46S584.16,365.82,585.82,364Z" style="fill:#263238"></path><path d="M590.91,358.64c1.71-1.85,3.21,1.25,2.18,3s-1.39,3.1-1.27,3.67c-.24-.37-.49-.73-.74-1.08C591.17,364.19,589.35,360.45,590.91,358.64Z" style="fill:#263238"></path><path d="M582.86,361.66c1.33-2.19,5.13-.7,5.11-.6.33.28.66.57,1,.86-.53-.22-2,.06-3.58,1.09S581.52,363.71,582.86,361.66Z" style="fill:#263238"></path><path d="M587,355.5c1.38-2.1,3.37.69,2.65,2.58s-.86,3.28-.65,3.82c-.3-.32-.6-.63-.91-.94C588.15,360.93,585.74,357.55,587,355.5Z" style="fill:#263238"></path><path d="M579.53,359.83c1-2.38,5-1.55,5-1.45.37.22.73.45,1.09.69-.56-.13-1.91.38-3.34,1.67S578.56,362.07,579.53,359.83Z" style="fill:#263238"></path><path d="M582.56,353.06c1-2.3,3.45.13,3,2.11s-.29,3.38,0,3.87c-.34-.27-.69-.52-1.05-.77C584.64,358.22,581.7,355.29,582.56,353.06Z" style="fill:#263238"></path><path d="M575.92,358.57c.54-2.51,4.66-2.35,4.67-2.26l1.2.5c-.58,0-1.83.69-3,2.21S575.34,360.94,575.92,358.57Z" style="fill:#263238"></path><path d="M577.76,351.39c.61-2.44,3.45-.45,3.39,1.57s.28,3.38.65,3.82c-.38-.2-.77-.4-1.16-.58C580.72,356.13,577.29,353.73,577.76,351.39Z" style="fill:#263238"></path><path d="M578.25,355.36a15.57,15.57,0,0,0-5.08-2.45c-2-.39-2.74,1-2.41,1.83s1.71,1,2.88,1S578.23,355.3,578.25,355.36Z" style="fill:#263238"></path><path d="M578.3,355.49h0a.15.15,0,0,0,.07-.15v0a.11.11,0,0,0-.07-.08,14.85,14.85,0,0,0-5.12-2.47,2.3,2.3,0,0,0-2.29.61,1.43,1.43,0,0,0-.27,1.41c.43,1.12,2.42,1.09,3,1.06,1.13-.16,4.25-.38,4.55-.35A.12.12,0,0,0,578.3,355.49Zm-6.58-2.36a2.42,2.42,0,0,1,1.42-.09,15,15,0,0,1,4.69,2.18l-1.47.09c-.91.07-2.11.17-2.74.26-1.12.06-2.44-.13-2.73-.88a1.15,1.15,0,0,1,.23-1.13A1.43,1.43,0,0,1,571.72,353.13Z" style="fill:#263238"></path><path d="M595.23,372.3a.2.2,0,0,0,.27-.09,26.63,26.63,0,0,0-.14-26,.22.22,0,0,0-.29-.08.21.21,0,0,0-.08.29,26.21,26.21,0,0,1,.14,25.57.21.21,0,0,0,.09.28Z" style="fill:#263238"></path><path d="M594.56,363.33c2.54.34,2.69,4.48,2.58,4.51q-.2.63-.42,1.26c0-.59-.81-1.8-2.4-2.89S592.15,362.93,594.56,363.33Z" style="fill:#263238"></path><path d="M601.85,364.64c2.49.42.71,3.4-1.32,3.5s-3.36.55-3.77,1c.18-.4.34-.82.5-1.23C597.34,367.94,599.49,364.33,601.85,364.64Z" style="fill:#263238"></path><path d="M594.91,359.55c2.56-.1,3.41,3.92,3.31,4-.05.43-.12.86-.19,1.29-.11-.57-1.11-1.61-2.87-2.41S592.46,359.55,594.91,359.55Z" style="fill:#263238"></path><path d="M602.32,359.61c2.52,0,1.27,3.2-.71,3.64s-3.21,1.08-3.55,1.56c.11-.43.2-.85.29-1.28C598.43,363.58,599.93,359.7,602.32,359.61Z" style="fill:#263238"></path><path d="M594.62,355.77c2.51-.52,4,3.28,3.93,3.34q0,.64,0,1.29c-.2-.54-1.37-1.39-3.23-1.88S592.21,356.18,594.62,355.77Z" style="fill:#263238"></path><path d="M601.94,354.59c2.48-.42,1.79,2.94-.09,3.69s-3,1.6-3.24,2.12c0-.43.06-.86.07-1.3C598.77,359.15,599.6,355.09,601.94,354.59Z" style="fill:#263238"></path><path d="M593.71,352.08c2.39-.92,4.51,2.58,4.43,2.65.09.42.17.84.24,1.27-.29-.5-1.58-1.14-3.5-1.32S591.4,352.9,593.71,352.08Z" style="fill:#263238"></path><path d="M600.72,349.7c2.38-.83,2.26,2.61.54,3.66s-2.68,2.08-2.84,2.63q-.06-.64-.15-1.29C598.36,354.73,598.51,350.58,600.72,349.7Z" style="fill:#263238"></path><path d="M592.17,348.58c2.21-1.32,4.9,1.81,4.83,1.89.16.4.31.8.45,1.21-.36-.44-1.75-.86-3.67-.71S590,349.77,592.17,348.58Z" style="fill:#263238"></path><path d="M598.69,345c2.2-1.22,2.68,2.22,1.15,3.55s-2.29,2.51-2.35,3.08c-.11-.42-.24-.83-.37-1.25C597.22,350.44,596.65,346.29,598.69,345Z" style="fill:#263238"></path><path d="M596.1,348.1a15.26,15.26,0,0,0-1.65-5.39c-1.07-1.71-2.61-1.31-3-.52s.4,2,1.25,2.77S596.14,348.05,596.1,348.1Z" style="fill:#263238"></path><path d="M596.05,348.23h0a.16.16,0,0,0,.16-.05v0a.09.09,0,0,0,0-.1,15,15,0,0,0-1.67-5.44,2.32,2.32,0,0,0-2-1.26,1.42,1.42,0,0,0-1.22.76c-.53,1.08.85,2.52,1.28,2.93.89.73,3.17,2.86,3.36,3.1A.1.1,0,0,0,596.05,348.23Zm-2.75-6.43a2.5,2.5,0,0,1,1,1,14.79,14.79,0,0,1,1.59,4.92c-.2-.21-.54-.52-1.06-1s-1.56-1.44-2.05-1.83c-.82-.79-1.57-1.89-1.22-2.61a1.16,1.16,0,0,1,1-.6A1.44,1.44,0,0,1,593.3,341.8Z" style="fill:#263238"></path><path d="M113.05,379.1a.21.21,0,0,0,.12-.26A26.59,26.59,0,0,0,94,361.27a.21.21,0,0,0-.1.4A26.2,26.2,0,0,1,112.77,379a.21.21,0,0,0,.27.13Z" style="fill:#263238"></path><path d="M106,373.49c2-1.64,5.11,1.07,5.06,1.17.22.38.43.77.63,1.16-.43-.4-1.86-.62-3.75-.2S104.09,375,106,373.49Z" style="fill:#263238"></path><path d="M112,369c2-1.53,3,1.8,1.67,3.35s-1.89,2.84-1.86,3.43c-.18-.41-.37-.81-.56-1.21C111.3,374.59,110.11,370.56,112,369Z" style="fill:#263238"></path><path d="M103.49,370.65c1.68-1.94,5.19.17,5.16.27.28.33.55.68.81,1-.49-.31-1.93-.28-3.72.46S101.83,372.44,103.49,370.65Z" style="fill:#263238"></path><path d="M108.58,365.26c1.71-1.84,3.21,1.25,2.18,3s-1.39,3.1-1.27,3.66c-.24-.36-.48-.72-.74-1.08C108.84,370.82,107,367.08,108.58,365.26Z" style="fill:#263238"></path><path d="M100.53,368.29c1.33-2.19,5.13-.7,5.12-.61q.5.42,1,.87c-.53-.23-1.94.05-3.58,1.08S99.19,370.34,100.53,368.29Z" style="fill:#263238"></path><path d="M104.64,362.13c1.38-2.11,3.37.69,2.65,2.57s-.86,3.29-.65,3.82c-.3-.32-.6-.63-.91-.93C105.82,367.55,103.42,364.18,104.64,362.13Z" style="fill:#263238"></path><path d="M97.21,366.45c.94-2.38,5-1.54,5-1.45.37.22.73.45,1.09.69-.56-.13-1.91.38-3.34,1.67S96.23,368.7,97.21,366.45Z" style="fill:#263238"></path><path d="M100.23,359.69c1-2.31,3.45.12,3,2.1s-.3,3.38,0,3.87c-.34-.26-.69-.52-1-.76C102.31,364.85,99.37,361.92,100.23,359.69Z" style="fill:#263238"></path><path d="M93.59,365.19c.54-2.51,4.66-2.35,4.67-2.25.4.16.8.32,1.2.5-.58,0-1.82.69-3,2.2S93,367.57,93.59,365.19Z" style="fill:#263238"></path><path d="M95.43,358c.61-2.45,3.45-.46,3.39,1.56s.28,3.39.66,3.82l-1.17-.58C98.39,362.76,95,360.36,95.43,358Z" style="fill:#263238"></path><path d="M95.92,362a15.52,15.52,0,0,0-5.08-2.46c-2-.38-2.74,1-2.41,1.83s1.71,1,2.89,1S95.9,361.93,95.92,362Z" style="fill:#263238"></path><path d="M96,362.12h0a.15.15,0,0,0,.07-.15h0a.11.11,0,0,0-.07-.09,15.12,15.12,0,0,0-5.12-2.47,2.3,2.3,0,0,0-2.28.62,1.41,1.41,0,0,0-.28,1.41c.43,1.12,2.42,1.09,3,1.05,1.13-.16,4.25-.37,4.55-.35Zm-6.58-2.37a2.53,2.53,0,0,1,1.42-.08,15,15,0,0,1,4.69,2.18l-1.46.09c-.92.06-2.12.17-2.74.25-1.13.07-2.45-.13-2.74-.88a1.15,1.15,0,0,1,.23-1.13A1.6,1.6,0,0,1,89.39,359.75Z" style="fill:#263238"></path><path d="M112.9,378.93a.22.22,0,0,0,.27-.09,26.63,26.63,0,0,0-.14-26,.21.21,0,0,0-.29-.08.22.22,0,0,0-.08.29,26.19,26.19,0,0,1,.15,25.56.21.21,0,0,0,.08.29Z" style="fill:#263238"></path><path d="M112.23,370c2.54.34,2.69,4.48,2.58,4.51-.12.42-.26.84-.41,1.25,0-.59-.82-1.79-2.41-2.89S109.82,369.55,112.23,370Z" style="fill:#263238"></path><path d="M119.52,371.27c2.49.42.71,3.4-1.31,3.5s-3.37.55-3.78,1c.18-.41.35-.82.5-1.23C115,374.57,117.16,371,119.52,371.27Z" style="fill:#263238"></path><path d="M112.58,366.17c2.56-.09,3.41,3.92,3.31,4,0,.43-.11.86-.19,1.29-.1-.58-1.11-1.61-2.87-2.42S110.14,366.17,112.58,366.17Z" style="fill:#263238"></path><path d="M120,366.23c2.52,0,1.27,3.21-.7,3.64s-3.22,1.09-3.55,1.56c.1-.42.2-.85.28-1.27C116.1,370.21,117.61,366.33,120,366.23Z" style="fill:#263238"></path><path d="M112.3,362.39c2.51-.51,4,3.29,3.92,3.34,0,.43,0,.86,0,1.3-.2-.55-1.37-1.39-3.23-1.89S109.89,362.81,112.3,362.39Z" style="fill:#263238"></path><path d="M119.61,361.22c2.48-.43,1.79,2.94-.09,3.69s-3,1.6-3.23,2.12c0-.43,0-.87.06-1.3C116.44,365.77,117.28,361.71,119.61,361.22Z" style="fill:#263238"></path><path d="M111.38,358.71c2.39-.93,4.51,2.58,4.43,2.64.09.42.17.85.24,1.27-.28-.5-1.57-1.14-3.5-1.31S109.07,359.52,111.38,358.71Z" style="fill:#263238"></path><path d="M118.4,356.32c2.37-.83,2.25,2.61.53,3.67s-2.68,2.08-2.84,2.63q-.06-.64-.15-1.29C116,361.36,116.18,357.21,118.4,356.32Z" style="fill:#263238"></path><path d="M109.85,355.21c2.2-1.32,4.89,1.81,4.82,1.88.16.4.31.81.46,1.22-.37-.45-1.75-.87-3.68-.72S107.71,356.4,109.85,355.21Z" style="fill:#263238"></path><path d="M116.36,351.67c2.2-1.22,2.68,2.22,1.15,3.55s-2.29,2.51-2.35,3.08c-.11-.42-.23-.84-.37-1.25C114.9,357.06,114.32,352.92,116.36,351.67Z" style="fill:#263238"></path><path d="M113.78,354.73a15.58,15.58,0,0,0-1.66-5.39c-1.07-1.72-2.6-1.32-3-.52s.4,1.95,1.25,2.77S113.81,354.68,113.78,354.73Z" style="fill:#263238"></path><path d="M113.72,354.86h0a.13.13,0,0,0,.15-.05h0a.1.1,0,0,0,0-.11,15.06,15.06,0,0,0-1.67-5.43,2.32,2.32,0,0,0-2-1.26,1.45,1.45,0,0,0-1.22.76c-.53,1.07.85,2.51,1.29,2.93.88.72,3.16,2.86,3.35,3.09A.14.14,0,0,0,113.72,354.86ZM111,348.42a2.42,2.42,0,0,1,1,1,15,15,0,0,1,1.6,4.91c-.21-.21-.55-.52-1.07-1-.67-.62-1.56-1.43-2-1.83-.82-.78-1.57-1.88-1.22-2.6a1.16,1.16,0,0,1,1-.6A1.53,1.53,0,0,1,111,348.42Z" style="fill:#263238"></path><path d="M718,371.49a.13.13,0,0,0,.08-.17,17.69,17.69,0,0,0-12.72-11.68.13.13,0,0,0-.16.1.14.14,0,0,0,.1.17,17.43,17.43,0,0,1,12.52,11.5.15.15,0,0,0,.18.09Z" style="fill:#263238"></path><path d="M713.31,367.76c1.32-1.08,3.4.72,3.37.78.14.26.29.51.42.78a3.32,3.32,0,0,0-2.5-.14C713.35,369.41,712,368.75,713.31,367.76Z" style="fill:#263238"></path><path d="M717.25,364.8c1.33-1,2,1.2,1.11,2.23a5,5,0,0,0-1.24,2.28c-.11-.28-.24-.54-.37-.81C716.82,368.49,716,365.81,717.25,364.8Z" style="fill:#263238"></path><path d="M711.63,365.88c1.11-1.29,3.45.11,3.43.18l.54.68a3.34,3.34,0,0,0-2.47.3C711.93,367.49,710.52,367.07,711.63,365.88Z" style="fill:#263238"></path><path d="M715,362.3c1.14-1.23,2.14.83,1.45,2a5,5,0,0,0-.84,2.43c-.16-.24-.33-.48-.5-.71C715.19,366,714,363.5,715,362.3Z" style="fill:#263238"></path><path d="M709.66,364.31c.88-1.46,3.41-.47,3.4-.4.22.18.43.37.64.57a3.39,3.39,0,0,0-2.38.72C710.23,365.84,708.77,365.67,709.66,364.31Z" style="fill:#263238"></path><path d="M712.39,360.21c.92-1.4,2.24.46,1.76,1.71a5,5,0,0,0-.43,2.54l-.6-.62C713.18,363.82,711.58,361.58,712.39,360.21Z" style="fill:#263238"></path><path d="M707.45,363.09c.63-1.59,3.29-1,3.29-1l.73.46a3.38,3.38,0,0,0-2.22,1.11C708.27,364.51,706.8,364.58,707.45,363.09Z" style="fill:#263238"></path><path d="M709.46,358.59c.67-1.53,2.29.08,2,1.4a5.07,5.07,0,0,0,0,2.57l-.69-.51C710.84,362,708.89,360.07,709.46,358.59Z" style="fill:#263238"></path><path d="M705.05,362.25c.35-1.67,3.09-1.56,3.1-1.5l.8.33a3.36,3.36,0,0,0-2,1.47C706.11,363.52,704.66,363.83,705.05,362.25Z" style="fill:#263238"></path><path d="M706.27,357.48c.4-1.63,2.3-.3,2.25,1a5,5,0,0,0,.44,2.54l-.78-.39C708.24,360.63,706,359,706.27,357.48Z" style="fill:#263238"></path><path d="M706.59,360.12a10.29,10.29,0,0,0-3.37-1.63c-1.32-.26-1.82.67-1.6,1.21s1.13.69,1.91.65S706.58,360.08,706.59,360.12Z" style="fill:#263238"></path><path d="M706.63,360.21h0a.1.1,0,0,0,.05-.1h0a.05.05,0,0,0,0,0,9.82,9.82,0,0,0-3.41-1.64,1.53,1.53,0,0,0-1.52.4,1,1,0,0,0-.18.94c.28.74,1.61.72,2,.7.75-.1,2.83-.25,3-.23A.16.16,0,0,0,706.63,360.21Zm-4.38-1.58a1.67,1.67,0,0,1,1-.05,9.9,9.9,0,0,1,3.11,1.44l-1,.07c-.61,0-1.41.11-1.82.17-.75,0-1.63-.09-1.82-.59a.76.76,0,0,1,.16-.75A1,1,0,0,1,702.25,358.63Z" style="fill:#263238"></path><path d="M717.88,371.38a.14.14,0,0,0,.18-.06,17.72,17.72,0,0,0-.09-17.27.14.14,0,0,0-.19-.05.15.15,0,0,0-.06.19,17.41,17.41,0,0,1,.1,17,.14.14,0,0,0,0,.19Z" style="fill:#263238"></path><path d="M717.44,365.42c1.69.22,1.78,3,1.71,3q-.12.42-.27.84c0-.39-.54-1.19-1.6-1.92S715.83,365.15,717.44,365.42Z" style="fill:#263238"></path><path d="M722.29,366.29c1.65.28.47,2.26-.88,2.33a5,5,0,0,0-2.51.64c.12-.27.23-.54.33-.82C719.29,368.48,720.71,366.08,722.29,366.29Z" style="fill:#263238"></path><path d="M717.67,362.9c1.7-.06,2.27,2.61,2.2,2.64,0,.28-.08.57-.13.85-.07-.38-.73-1.07-1.9-1.6S716.05,362.9,717.67,362.9Z" style="fill:#263238"></path><path d="M722.6,362.94c1.67,0,.84,2.13-.47,2.42a4.87,4.87,0,0,0-2.36,1c.07-.28.13-.57.19-.85C720,365.58,721,363,722.6,362.94Z" style="fill:#263238"></path><path d="M717.48,360.39c1.67-.34,2.67,2.18,2.61,2.22,0,.28,0,.57,0,.86a3.33,3.33,0,0,0-2.15-1.25C716.74,361.85,715.88,360.66,717.48,360.39Z" style="fill:#263238"></path><path d="M722.34,359.61c1.65-.28,1.19,1.95-.05,2.45a5.07,5.07,0,0,0-2.16,1.41c0-.29,0-.57,0-.86C720.24,362.63,720.79,359.94,722.34,359.61Z" style="fill:#263238"></path><path d="M716.87,357.94c1.59-.62,3,1.71,3,1.76.06.28.11.56.16.84a3.35,3.35,0,0,0-2.33-.87C716.39,359.51,715.34,358.48,716.87,357.94Z" style="fill:#263238"></path><path d="M721.54,356.35c1.58-.55,1.5,1.74.35,2.44a5,5,0,0,0-1.89,1.75c0-.29-.06-.57-.1-.86C720,359.7,720.06,356.94,721.54,356.35Z" style="fill:#263238"></path><path d="M715.85,355.61c1.47-.87,3.25,1.21,3.21,1.25q.16.4.3.81a3.39,3.39,0,0,0-2.44-.47C715.65,357.25,714.43,356.4,715.85,355.61Z" style="fill:#263238"></path><path d="M720.18,353.26c1.47-.81,1.78,1.48.77,2.36a5,5,0,0,0-1.56,2.05c-.08-.28-.16-.56-.25-.83C719.21,356.85,718.83,354.09,720.18,353.26Z" style="fill:#263238"></path><path d="M718.47,355.29a10.42,10.42,0,0,0-1.11-3.58c-.71-1.14-1.73-.88-2-.35s.27,1.3.84,1.85S718.49,355.26,718.47,355.29Z" style="fill:#263238"></path><path d="M718.43,355.38h0a.09.09,0,0,0,.1,0h0a.06.06,0,0,0,0-.07,9.8,9.8,0,0,0-1.11-3.61,1.52,1.52,0,0,0-1.33-.84,1,1,0,0,0-.81.5c-.35.72.56,1.68.85,1.95.59.48,2.11,1.9,2.23,2.06A.12.12,0,0,0,718.43,355.38Zm-1.83-4.28a1.61,1.61,0,0,1,.69.66,10,10,0,0,1,1.05,3.26c-.13-.14-.35-.34-.7-.67s-1-1-1.37-1.22c-.54-.52-1-1.25-.8-1.73a.74.74,0,0,1,.65-.39A.93.93,0,0,1,716.6,351.1Z" style="fill:#263238"></path><path d="M160,371.49a.14.14,0,0,1-.08-.17,17.71,17.71,0,0,1,12.72-11.68.14.14,0,0,1,.07.27,17.41,17.41,0,0,0-12.52,11.5.16.16,0,0,1-.18.09Z" style="fill:#263238"></path><path d="M164.67,367.76c-1.31-1.08-3.39.72-3.36.78-.15.26-.29.51-.42.78a3.3,3.3,0,0,1,2.49-.14C164.64,369.41,166,368.75,164.67,367.76Z" style="fill:#263238"></path><path d="M160.74,364.8c-1.33-1-2,1.2-1.11,2.23a5,5,0,0,1,1.23,2.28c.12-.28.24-.54.38-.81C161.17,368.49,162,365.81,160.74,364.8Z" style="fill:#263238"></path><path d="M166.36,365.88c-1.12-1.29-3.45.11-3.43.18-.19.22-.37.45-.54.68a3.34,3.34,0,0,1,2.47.3C166.05,367.49,167.46,367.07,166.36,365.88Z" style="fill:#263238"></path><path d="M163,362.3c-1.14-1.23-2.14.83-1.46,2a4.91,4.91,0,0,1,.85,2.43c.16-.24.32-.48.49-.71C162.8,366,164,363.5,163,362.3Z" style="fill:#263238"></path><path d="M168.33,364.31c-.89-1.46-3.42-.47-3.4-.4-.22.18-.44.37-.65.57a3.37,3.37,0,0,1,2.38.72C167.76,365.84,169.22,365.67,168.33,364.31Z" style="fill:#263238"></path><path d="M165.59,360.21c-.91-1.4-2.24.46-1.75,1.71a5,5,0,0,1,.43,2.54c.19-.21.39-.42.6-.62C164.81,363.82,166.41,361.58,165.59,360.21Z" style="fill:#263238"></path><path d="M170.54,363.09c-.63-1.59-3.3-1-3.29-1l-.73.46a3.38,3.38,0,0,1,2.22,1.11C169.72,364.51,171.19,364.58,170.54,363.09Z" style="fill:#263238"></path><path d="M168.53,358.59c-.67-1.53-2.3.08-2,1.4a4.91,4.91,0,0,1,0,2.57l.7-.51C167.14,362,169.1,360.07,168.53,358.59Z" style="fill:#263238"></path><path d="M172.94,362.25c-.36-1.67-3.1-1.56-3.1-1.5l-.8.33a3.38,3.38,0,0,1,2,1.47C171.88,363.52,173.32,363.83,172.94,362.25Z" style="fill:#263238"></path><path d="M171.72,357.48c-.41-1.63-2.3-.3-2.26,1a5.07,5.07,0,0,1-.43,2.54l.77-.39C169.75,360.63,172,359,171.72,357.48Z" style="fill:#263238"></path><path d="M171.39,360.12a10.38,10.38,0,0,1,3.38-1.63c1.31-.26,1.82.67,1.6,1.21s-1.13.69-1.92.65S171.4,360.08,171.39,360.12Z" style="fill:#263238"></path><path d="M171.36,360.21h0a.09.09,0,0,1,0-.1h0a.08.08,0,0,1,0,0,9.76,9.76,0,0,1,3.4-1.64,1.52,1.52,0,0,1,1.52.4,1,1,0,0,1,.19.94c-.29.74-1.61.72-2,.7-.75-.1-2.83-.25-3-.23C171.4,360.22,171.38,360.21,171.36,360.21Zm4.37-1.58a1.64,1.64,0,0,0-.94-.05,9.86,9.86,0,0,0-3.12,1.44l1,.07c.61,0,1.41.11,1.83.17.75,0,1.62-.09,1.81-.59a.73.73,0,0,0-.15-.75A1,1,0,0,0,175.73,358.63Z" style="fill:#263238"></path><path d="M160.1,371.38a.15.15,0,0,1-.18-.06,17.69,17.69,0,0,1,.1-17.27.14.14,0,1,1,.24.14,17.41,17.41,0,0,0-.09,17,.14.14,0,0,1-.06.19Z" style="fill:#263238"></path><path d="M160.55,365.42c-1.69.22-1.79,3-1.72,3,.09.28.18.56.28.84,0-.39.54-1.19,1.6-1.92S162.15,365.15,160.55,365.42Z" style="fill:#263238"></path><path d="M155.7,366.29c-1.65.28-.47,2.26.88,2.33a5,5,0,0,1,2.51.64c-.12-.27-.23-.54-.34-.82C158.7,368.48,157.27,366.08,155.7,366.29Z" style="fill:#263238"></path><path d="M160.31,362.9c-1.7-.06-2.26,2.61-2.2,2.64,0,.28.08.57.13.85.07-.38.74-1.07,1.91-1.6S161.94,362.9,160.31,362.9Z" style="fill:#263238"></path><path d="M155.39,362.94c-1.67,0-.84,2.13.47,2.42a4.87,4.87,0,0,1,2.36,1c-.07-.28-.13-.57-.19-.85C158,365.58,157,363,155.39,362.94Z" style="fill:#263238"></path><path d="M160.51,360.39c-1.67-.34-2.67,2.18-2.62,2.22,0,.28,0,.57,0,.86a3.33,3.33,0,0,1,2.15-1.25C161.24,361.85,162.11,360.66,160.51,360.39Z" style="fill:#263238"></path><path d="M155.64,359.61c-1.65-.28-1.19,1.95.06,2.45a4.94,4.94,0,0,1,2.15,1.41c0-.29,0-.57,0-.86C157.75,362.63,157.2,359.94,155.64,359.61Z" style="fill:#263238"></path><path d="M161.11,357.94c-1.58-.62-3,1.71-2.94,1.76-.06.28-.12.56-.16.84a3.35,3.35,0,0,1,2.32-.87C161.6,359.51,162.65,358.48,161.11,357.94Z" style="fill:#263238"></path><path d="M156.45,356.35c-1.58-.55-1.5,1.74-.35,2.44a4.85,4.85,0,0,1,1.88,1.75c0-.29.06-.57.1-.86C158,359.7,157.93,356.94,156.45,356.35Z" style="fill:#263238"></path><path d="M162.13,355.61c-1.46-.87-3.25,1.21-3.2,1.25q-.17.4-.3.81a3.39,3.39,0,0,1,2.44-.47C162.34,357.25,163.55,356.4,162.13,355.61Z" style="fill:#263238"></path><path d="M157.81,353.26c-1.47-.81-1.79,1.48-.77,2.36a5,5,0,0,1,1.56,2.05c.08-.28.16-.56.25-.83C158.78,356.85,159.16,354.09,157.81,353.26Z" style="fill:#263238"></path><path d="M159.52,355.29a10.56,10.56,0,0,1,1.1-3.58c.71-1.14,1.73-.88,2-.35s-.26,1.3-.83,1.85S159.5,355.26,159.52,355.29Z" style="fill:#263238"></path><path d="M159.56,355.38h0a.09.09,0,0,1-.1,0h0a.08.08,0,0,1,0-.07,9.8,9.8,0,0,1,1.11-3.61,1.54,1.54,0,0,1,1.34-.84,1,1,0,0,1,.81.5c.35.72-.57,1.68-.85,1.95-.59.48-2.11,1.9-2.23,2.06Zm1.83-4.28a1.61,1.61,0,0,0-.69.66,9.77,9.77,0,0,0-1.06,3.26l.71-.67c.45-.41,1-1,1.36-1.22.55-.52,1-1.25.81-1.73a.75.75,0,0,0-.65-.39A.93.93,0,0,0,161.39,351.1Z" style="fill:#263238"></path></g></svg>